<svg width="75" height="92" viewBox="0 0 75 92" fill="none" xmlns="http://www.w3.org/2000/svg">
<path fill-rule="evenodd" clip-rule="evenodd" d="M42.0829 0.205009C43.8392 0.844246 44.7447 2.78621 44.1055 4.5425L41.5591 11.5386C41.0115 13.0433 39.5077 13.9235 37.9836 13.7429C37.7336 13.9246 37.4543 14.0748 37.1494 14.1858C35.3931 14.8251 33.4512 13.9195 32.8119 12.1632L30.2656 5.16711C29.6263 3.41082 30.5319 1.46886 32.2882 0.829624C34.0444 0.190387 35.9864 1.09594 36.6256 2.85223L37.0719 4.0782L37.7454 2.22761C38.3847 0.471322 40.3266 -0.434228 42.0829 0.205009Z" fill="#282828"/>
<ellipse cx="36.8305" cy="39.5948" rx="33.1645" ry="34.1797" fill="#282828"/>
<path fill-rule="evenodd" clip-rule="evenodd" d="M7.40855 55.3877C7.4064 55.3717 7.40425 55.3557 7.40211 55.3397C5.40038 40.3615 12.1079 27.106 22.3838 25.7327C27.6312 25.0314 32.7944 27.5642 36.8576 32.2054C40.9208 27.5642 46.084 25.0314 51.3314 25.7327C61.5821 27.1027 68.2819 40.2966 66.3277 55.2296C60.821 66.2431 49.6781 73.7747 36.8283 73.7747C24.0401 73.7747 12.9425 66.3151 7.40855 55.3877Z" fill="white"/>
<circle cx="16.8633" cy="53.1309" r="5.0762" fill="#FFC6AD"/>
<circle cx="56.7969" cy="53.1309" r="5.0762" fill="#FFC6AD"/>
<g filter="url(#filter0_f_1032_771)">
<path d="M3.77423 49.0887C3.89503 48.3284 4.79651 47.9812 5.41375 48.4412C23.2456 61.7327 51.3561 61.1498 67.9613 48.4174C68.5597 47.9586 69.4472 48.2674 69.6035 49.0052L72.1023 60.8003C72.8541 64.3491 71.1368 67.9978 67.7915 69.4007C47.3756 77.963 25.1863 77.9392 6.01361 69.3293C2.92593 67.9427 1.3118 64.5868 1.84292 61.244L3.77423 49.0887Z" fill="#8ED2C9"/>
</g>
<path d="M3.77423 49.0887C3.89503 48.3284 4.79651 47.9812 5.41375 48.4412C23.2456 61.7327 51.3561 61.1498 67.9613 48.4174C68.5597 47.9586 69.4472 48.2674 69.6035 49.0052L72.1023 60.8003C72.8541 64.3491 71.1368 67.9978 67.7915 69.4007C47.3756 77.963 25.1863 77.9392 6.01361 69.3293C2.92593 67.9427 1.3118 64.5868 1.84292 61.244L3.77423 49.0887Z" fill="#8ED2C9"/>
<g filter="url(#filter1_f_1032_771)">
<path d="M47.6514 66.3291C46.8605 66.3291 46.2374 67.0069 46.3082 67.7946C47.0452 75.9944 48.1701 80.6742 52.4527 86.6303C52.7539 87.0492 53.2727 87.2508 53.7799 87.1563L53.8428 87.1446C54.2053 88.1983 54.8015 89.0423 55.4994 89.7998C55.7527 90.0747 56.1808 90.0923 56.4558 89.839C56.7307 89.5857 56.7482 89.1575 56.495 88.8826C55.9303 88.2697 55.4819 87.6381 55.192 86.893L56.8183 86.5898C57.171 87.7455 57.8001 88.6527 58.5451 89.4614C58.7984 89.7363 59.2266 89.7539 59.5015 89.5006C59.7764 89.2473 59.7939 88.8191 59.5407 88.5442C58.9225 87.8732 58.4437 87.1799 58.1597 86.3397L59.5775 86.0754C59.9381 87.1543 60.5427 88.0141 61.2524 88.7846C61.5057 89.0595 61.9339 89.077 62.2088 88.8238C62.4837 88.5705 62.5013 88.1423 62.248 87.8674C61.6699 87.2398 61.2136 86.5927 60.9246 85.8242L62.3412 85.5601C62.7066 86.564 63.2858 87.3762 63.9597 88.1077C64.213 88.3827 64.6412 88.4002 64.9161 88.1469C65.191 87.8937 65.2086 87.4655 64.9553 87.1906C64.4178 86.6071 63.9856 86.0068 63.6953 85.3076L65.1095 85.044C65.4766 85.9745 66.0294 86.7388 66.667 87.4309C66.9203 87.7058 67.3485 87.7234 67.6234 87.4701C67.8983 87.2168 67.9159 86.7886 67.6626 86.5137C67.1663 85.975 66.7598 85.4219 66.4719 84.79L67.8823 84.527C68.2482 85.3859 68.7736 86.102 69.3743 86.7541C69.6276 87.029 70.0558 87.0465 70.3307 86.7933C70.6056 86.54 70.6232 86.1118 70.3699 85.8369C69.9154 85.3436 69.5363 84.8382 69.2544 84.2712L70.6599 84.0092C71.0213 84.7981 71.5183 85.4658 72.0816 86.0773C72.3349 86.3522 72.7631 86.3697 73.038 86.1164C73.3129 85.8632 73.3305 85.435 73.0772 85.1601C72.5757 84.6157 72.1658 84.0565 71.8773 83.4161C72.1837 83.0032 72.253 82.4242 71.9747 81.9249C69.0315 76.6428 67.5946 73.0655 66.376 67.415C66.2402 66.7851 65.6862 66.3291 65.0419 66.3291H47.6514Z" fill="#8ED2C9"/>
</g>
<path fill-rule="evenodd" clip-rule="evenodd" d="M48.3539 66.3291C47.1854 66.3291 46.2635 67.3297 46.3743 68.4929C47.0999 76.1166 48.2499 80.6699 52.22 86.3014C52.5232 86.7315 52.9832 87.0066 53.4856 87.0898C53.86 88.273 54.5103 89.2018 55.2629 90.0188C55.6371 90.425 56.2698 90.4509 56.676 90.0767C57.0821 89.7025 57.1081 89.0699 56.7339 88.6637C56.2032 88.0876 55.789 87.5062 55.517 86.8327L56.5005 86.6493C56.8693 87.8814 57.5351 88.8401 58.3093 89.6804C58.6835 90.0866 59.3161 90.1125 59.7223 89.7383C60.1285 89.3641 60.1544 88.7315 59.7802 88.3253C59.194 87.689 58.75 87.0461 58.4826 86.2798L59.2593 86.135C59.6365 87.2895 60.2774 88.2006 61.0172 89.0037C61.3914 89.4099 62.0241 89.4358 62.4303 89.0616C62.8364 88.6874 62.8624 88.0548 62.4882 87.6486C61.9434 87.0572 61.5214 86.4603 61.2499 85.7638L62.0204 85.6202C62.4032 86.6984 63.0182 87.5614 63.723 88.3264C64.0972 88.7326 64.7298 88.7585 65.136 88.3843C65.5422 88.0101 65.5681 87.3775 65.1939 86.9713C64.6914 86.4259 64.2935 85.8757 64.0216 85.2471L64.7878 85.1042C65.1732 86.1081 65.7615 86.9231 66.4309 87.6497C66.8051 88.0559 67.4378 88.0818 67.844 87.7076C68.2501 87.3334 68.2761 86.7008 67.9019 86.2946C67.4421 85.7955 67.0697 85.2924 66.8015 84.7288L67.5595 84.5875C67.9445 85.5185 68.5054 86.2854 69.1389 86.973C69.5131 87.3792 70.1457 87.4051 70.5519 87.0309C70.9581 86.6567 70.984 86.0241 70.6098 85.6179C70.1932 85.1656 69.8484 84.7101 69.5878 84.2093L70.1442 84.1056C70.2076 84.0938 70.2695 84.0792 70.3299 84.062C70.7118 84.9254 71.2458 85.6463 71.8446 86.2963C72.2188 86.7025 72.8515 86.7284 73.2577 86.3542C73.6639 85.98 73.6898 85.3474 73.3156 84.9412C72.5965 84.1607 72.0915 83.3703 71.8638 82.3544C71.8466 82.2772 71.8208 82.2042 71.7877 82.136C71.7924 81.7976 71.7128 81.4509 71.5357 81.1263C68.9725 76.4288 67.6229 73.0047 66.4909 67.9318C66.2835 67.0027 65.4665 66.3291 64.5145 66.3291H48.3539Z" fill="#8ED2C9"/>
<path d="M55.8552 71.4652C55.9011 71.4388 55.9462 71.41 55.9904 71.3788C56.7449 70.8448 56.9266 69.8043 56.3962 69.0548C55.8658 68.3054 54.8242 68.1307 54.0696 68.6647C53.9964 68.7165 53.9285 68.7731 53.8662 68.8338C53.8198 68.1881 53.4106 67.5993 52.7769 67.3667C51.9196 67.052 50.976 67.5082 50.6693 68.3856C50.5058 68.8534 50.5563 69.3464 50.769 69.7526C50.701 69.7442 50.6318 69.7398 50.5616 69.7396C49.6321 69.737 48.8881 70.4751 48.8997 71.3883C48.9114 72.3015 49.6743 73.0438 50.6038 73.0464C50.654 73.0466 50.7036 73.0445 50.7526 73.0405C50.7325 73.0853 50.7141 73.1314 50.6975 73.1788C50.3908 74.0562 50.8372 75.0226 51.6945 75.3374C52.5518 75.6521 53.4954 75.1959 53.802 74.3184C53.8293 74.2405 53.8506 74.1619 53.8662 74.0831C54.1698 74.357 54.5737 74.5251 55.0151 74.5263C55.9446 74.5289 56.6886 73.7908 56.677 72.8776C56.6693 72.281 56.3411 71.7574 55.8552 71.4652Z" fill="white"/>
<g style="mix-blend-mode:multiply">
<circle cx="53.1375" cy="71.4767" r="1.25411" transform="rotate(79.3678 53.1375 71.4767)" fill="#FED402"/>
</g>
<path d="M65.8865 77.838C65.9507 77.801 66.0138 77.7608 66.0755 77.7171C67.13 76.9708 67.384 75.5167 66.6427 74.4692C65.9014 73.4217 64.4456 73.1776 63.391 73.9239C63.2887 73.9964 63.1938 74.0755 63.1067 74.1603C63.0419 73.2578 62.47 72.435 61.5843 72.1098C60.3861 71.67 59.0674 72.3076 58.6387 73.5339C58.4102 74.1876 58.4808 74.8767 58.7781 75.4443C58.683 75.4326 58.5863 75.4265 58.4882 75.4262C57.1891 75.4225 56.1493 76.4542 56.1656 77.7304C56.1819 79.0067 57.2482 80.0442 58.5472 80.0478C58.6173 80.048 58.6867 80.0452 58.7552 80.0395C58.727 80.1022 58.7013 80.1666 58.6782 80.2328C58.2495 81.4591 58.8734 82.8098 60.0715 83.2496C61.2697 83.6895 62.5884 83.0519 63.0171 81.8256C63.0551 81.7167 63.0849 81.6068 63.1067 81.4967C63.5311 81.8795 64.0955 82.1144 64.7124 82.1162C66.0115 82.1198 67.0513 81.0881 67.035 79.8119C67.0244 78.9781 66.5656 78.2462 65.8865 77.838Z" fill="white"/>
<g style="mix-blend-mode:multiply">
<circle cx="62.0871" cy="77.8546" r="1.75275" transform="rotate(79.3678 62.0871 77.8546)" fill="#FED402"/>
</g>
<circle cx="4.39937" cy="4.39937" r="4.39937" transform="matrix(-1 0 0 1 25.998 39.9326)" fill="#282828"/>
<circle cx="1.01524" cy="1.01524" r="1.01524" transform="matrix(-1 0 0 1 24.6445 41.9639)" fill="white"/>
<circle cx="4.39937" cy="4.39937" r="4.39937" transform="matrix(-1 0 0 1 56.457 39.9326)" fill="#282828"/>
<circle cx="1.01524" cy="1.01524" r="1.01524" transform="matrix(-1 0 0 1 55.1035 41.9629)" fill="white"/>
<path d="M42.9212 45.6855C42.9212 44.0034 40.1939 42.6398 36.8297 42.6398C33.4655 42.6398 30.7383 44.0034 30.7383 45.6855C30.7383 47.3676 33.4655 50.7617 36.8297 50.7617C40.1939 50.7617 42.9212 47.3676 42.9212 45.6855Z" fill="#FED402"/>
<defs>
<filter id="filter0_f_1032_771" x="0.742188" y="47.2012" width="72.5352" height="29.6035" filterUnits="userSpaceOnUse" color-interpolation-filters="sRGB">
<feFlood flood-opacity="0" result="BackgroundImageFix"/>
<feBlend mode="normal" in="SourceGraphic" in2="BackgroundImageFix" result="shape"/>
<feGaussianBlur stdDeviation="0.5" result="effect1_foregroundBlur_1032_771"/>
</filter>
<filter id="filter1_f_1032_771" x="45.3027" y="65.3291" width="28.9531" height="25.6885" filterUnits="userSpaceOnUse" color-interpolation-filters="sRGB">
<feFlood flood-opacity="0" result="BackgroundImageFix"/>
<feBlend mode="normal" in="SourceGraphic" in2="BackgroundImageFix" result="shape"/>
<feGaussianBlur stdDeviation="0.5" result="effect1_foregroundBlur_1032_771"/>
</filter>
</defs>
</svg>
