<svg width="77" height="85" viewBox="0 0 77 85" fill="none" xmlns="http://www.w3.org/2000/svg">
<circle cx="8.8308" cy="24.0525" r="8.30931" fill="#9B7963"/>
<circle cx="8.83171" cy="24.0524" r="5.93522" fill="#3B2F1E"/>
<circle cx="68.1824" cy="24.0525" r="8.30931" fill="#9B7963"/>
<circle cx="68.1833" cy="24.0524" r="5.93522" fill="#3B2F1E"/>
<path d="M37.4122 2.72095C37.3891 1.41808 38.2411 0.33915 39.3154 0.311104C40.3896 0.283059 41.2792 1.31651 41.3023 2.61939L41.3351 4.46834L41.8518 2.74665C42.2193 1.52206 43.3357 0.890655 44.3454 1.33637C45.3551 1.78208 45.8757 3.13613 45.5082 4.36072L43.7338 10.2735C43.3663 11.4981 42.2499 12.1295 41.2402 11.6838C40.9169 11.5411 40.6438 11.3053 40.4339 11.0104C40.1613 11.1997 39.8469 11.3113 39.5108 11.3201C39.2353 11.3273 38.972 11.2647 38.7324 11.1457C38.5531 11.8111 38.1325 12.3736 37.548 12.6316C36.5383 13.0773 35.4219 12.4459 35.0544 11.2213L33.28 5.30847C32.9125 4.08388 33.4331 2.72983 34.4428 2.28412C35.4524 1.83841 36.5689 2.46981 36.9364 3.69439L37.4604 5.44076L37.4122 2.72095Z" fill="#9B7963"/>
<ellipse cx="38.5031" cy="37.1085" rx="32.6437" ry="30.2696" fill="#9B7963"/>
<path fill-rule="evenodd" clip-rule="evenodd" d="M7.58984 46.855C10.7418 41.3947 16.7849 37.7012 23.7219 37.7012C25.9273 37.7012 28.0422 38.0745 30.0027 38.7591C35.2929 40.6066 42.9056 40.6066 48.1958 38.7591C50.1562 38.0745 52.2712 37.7012 54.4765 37.7012C60.8829 37.7012 66.5267 40.8512 69.8353 45.6336C65.8648 58.2001 53.3403 67.3776 38.5043 67.3776C24.1532 67.3776 11.9651 58.7904 7.58984 46.855Z" fill="#F5E8CF"/>
<path d="M34.3496 48.0885L36.4269 48.682L39.3946 47.1982L42.0654 48.682L44.4395 48.0885L44.2316 50.4793C44.0134 52.9884 41.913 54.914 39.3946 54.914V54.914C36.8761 54.914 34.7757 52.9884 34.5575 50.4794L34.3496 48.0885Z" fill="#FEB1AA"/>
<path d="M39.3989 40.3359V45.6056C39.3989 47.3266 40.7939 48.7216 42.5149 48.7216H42.9502C44.4307 48.7216 45.6309 47.5215 45.6309 46.041V46.041" stroke="#3B2F1E" stroke-width="2.5" stroke-linecap="round" stroke-linejoin="round"/>
<path d="M39.398 40.3359V45.6056C39.398 47.3266 38.0029 48.7216 36.282 48.7216H35.8467C34.3662 48.7216 33.166 47.5215 33.166 46.041V46.041" stroke="#3B2F1E" stroke-width="2.5" stroke-linecap="round" stroke-linejoin="round"/>
<path d="M45.4964 40.8073C45.4964 42.7705 42.7357 44.3619 39.3302 44.3619C35.9247 44.3619 33.1641 42.7705 33.1641 40.8073C33.1641 38.8441 35.9247 35.9219 39.3302 35.9219C42.7357 35.9219 45.4964 38.8441 45.4964 40.8073Z" fill="#3B2F1E"/>
<ellipse cx="36.1307" cy="39.1859" rx="1.18704" ry="0.890284" transform="rotate(-25.5447 36.1307 39.1859)" fill="white"/>
<ellipse cx="20.4011" cy="41.264" rx="3.26437" ry="1.78057" fill="#FFCEB9"/>
<ellipse cx="57.1999" cy="41.264" rx="3.26437" ry="1.78057" fill="#FFCEB9"/>
<circle cx="20.9924" cy="35.6262" r="4.45142" fill="#3B2F1E"/>
<circle cx="19.2104" cy="34.4389" r="1.48381" fill="white"/>
<circle cx="20.9918" cy="36.8131" r="0.890284" fill="white"/>
<circle cx="56.01" cy="35.6262" r="4.45142" fill="#3B2F1E"/>
<circle cx="54.2279" cy="34.4389" r="1.48381" fill="white"/>
<circle cx="56.0094" cy="36.8131" r="0.890284" fill="white"/>
<path d="M18.1651 44.7926L5.10765 43.6056M18.618 47.4477L5.10764 48.3538M19.2377 49.9918L5.70116 53.102" stroke="#3B2F1E" stroke-width="2" stroke-linecap="round"/>
<path d="M59.4325 44.7926L72.49 43.6056M58.9796 47.4477L72.49 48.3538M58.3599 49.9918L71.8965 53.102" stroke="#3B2F1E" stroke-width="2" stroke-linecap="round"/>
<path fill-rule="evenodd" clip-rule="evenodd" d="M48.9828 65.4531C47.7968 65.4531 46.8665 66.4821 47.0182 67.6584C47.741 73.2645 48.9266 76.7152 52.7442 80.9596C53.0587 81.3094 53.4879 81.5227 53.9448 81.5781C54.3343 82.6184 55.0364 83.3998 55.8072 84.0567C56.2276 84.4149 56.8587 84.3646 57.2169 83.9442C57.5752 83.5239 57.5248 82.8927 57.1044 82.5345C56.639 82.1378 56.2857 81.7546 56.0416 81.342L56.9172 81.2139C57.2982 82.3053 58.0208 83.1164 58.8166 83.7945C59.2369 84.1528 59.8681 84.1024 60.2263 83.682C60.5845 83.2617 60.5341 82.6305 60.1138 82.2723C59.5869 81.8233 59.2037 81.3916 58.96 80.9149L59.6368 80.8158C60.0281 81.8437 60.7251 82.618 61.4898 83.2696C61.9101 83.6279 62.5413 83.5775 62.8995 83.1571C63.2578 82.7368 63.2074 82.1056 62.787 81.7474C62.3061 81.3376 61.9449 80.9421 61.7002 80.5138L62.3601 80.4172C62.7591 81.3827 63.43 82.12 64.163 82.7447C64.5834 83.103 65.2145 83.0526 65.5728 82.6322C65.931 82.2119 65.8806 81.5807 65.4603 81.2225C65.0257 80.8521 64.6888 80.4935 64.4473 80.1117L65.0893 80.0177C65.4932 80.9223 66.1374 81.6229 66.8385 82.2204C67.2589 82.5786 67.89 82.5282 68.2483 82.1079C68.6065 81.6875 68.5561 81.0564 68.1358 80.6982C67.7473 80.3671 67.437 80.0455 67.203 79.7083L67.8205 79.6179C68.2266 80.4625 68.8433 81.1259 69.5118 81.6955C69.9321 82.0537 70.5633 82.0033 70.9215 81.583C71.2797 81.1626 71.2293 80.5315 70.809 80.1733C70.4666 79.8815 70.1849 79.597 69.9627 79.3027C70.1585 79.266 70.3402 79.2029 70.506 79.1183C70.9121 79.9508 71.5232 80.6066 72.185 81.1706C72.6053 81.5288 73.2365 81.4784 73.5947 81.0581C73.953 80.6377 73.9026 80.0066 73.4822 79.6484C72.7718 79.0429 72.3225 78.4688 72.1241 77.7735C72.0434 77.4904 71.8484 77.2708 71.6035 77.1504C71.5809 76.7981 71.4678 76.4434 71.2507 76.1204C69.1222 72.9535 67.9111 70.4529 66.8925 66.9495C66.6377 66.0731 65.8459 65.4531 64.9332 65.4531H48.9828Z" fill="#C03A2B"/>
<path d="M10.5926 54.8658C10.7122 54.1005 11.6226 53.7522 12.2434 54.2156C27.3787 65.5147 51.0239 65.0226 65.1356 54.1922C65.7379 53.7299 66.6352 54.0395 66.7901 54.7828L68.715 64.0228C69.4487 67.5446 67.7575 71.1678 64.4325 72.5408C47.4888 79.5379 29.1755 79.5142 13.2334 72.4699C10.1633 71.1133 8.57496 67.7786 9.09311 64.4624L10.5926 54.8658Z" fill="#E64C3C"/>
</svg>
