<svg width="93" height="80" viewBox="0 0 93 80" fill="none" xmlns="http://www.w3.org/2000/svg">
<path d="M38.6832 22.6997C40.1952 21.2459 40.8803 19.4317 40.26 17.0432C38.2431 9.27767 22.2808 -0.931206 13.1457 2.04291C4.01072 5.01702 -0.849853 13.0368 1.16701 20.8023C1.62071 22.5492 2.42985 24.0997 3.51553 25.4199C2.97387 27.4502 3.00918 29.4226 3.73001 31.1597C4.53803 33.107 6.10334 34.5078 8.15685 35.332C7.56586 37.0487 7.50578 38.6736 8.08173 40.0617C10.0417 44.7849 18.6247 44.9758 27.2524 40.4879C35.8801 36.0001 41.2855 28.533 39.3255 23.8097C39.1583 23.4067 38.9428 23.0366 38.6832 22.6997Z" fill="#C4C4C4"/>
<path d="M54.5355 22.6997C53.0235 21.2459 52.3384 19.4317 52.9587 17.0432C54.9756 9.27767 70.938 -0.931206 80.073 2.04291C89.208 5.01702 94.0686 13.0368 92.0517 20.8023C91.598 22.5492 90.7889 24.0997 89.7032 25.4199C90.2449 27.4502 90.2096 29.4226 89.4887 31.1597C88.6807 33.107 87.1154 34.5078 85.0619 35.332C85.6529 37.0487 85.713 38.6736 85.137 40.0617C83.1771 44.7849 74.5941 44.9758 65.9664 40.4879C57.3386 36.0001 51.9333 28.533 53.8932 23.8097C54.0605 23.4067 54.2759 23.0366 54.5355 22.6997Z" fill="#C4C4C4"/>
<ellipse cx="19.4662" cy="22.2253" rx="12.2787" ry="13.5417" fill="#EAEAEA"/>
<ellipse cx="73.6654" cy="22.2253" rx="12.2787" ry="13.5417" fill="#EAEAEA"/>
<path d="M74.4225 31.2163C74.4225 44.5703 74.4295 54.8588 46.7783 54.8588C19.127 54.8588 18.4453 44.5703 18.4453 31.2163C18.4453 17.8623 31.7631 0.620117 47.0344 0.620117C62.3058 0.620117 74.4225 17.8623 74.4225 31.2163Z" fill="#C4C4C4"/>
<circle cx="34.2288" cy="29.1868" r="2.28541" fill="#606060"/>
<circle cx="59.3674" cy="29.1868" r="2.28541" fill="#606060"/>
<path d="M47.3042 34.6934V38.5179C47.3042 40.2461 48.7052 41.647 50.4333 41.647H51.3396C52.5673 41.647 53.5625 40.6518 53.5625 39.4241V39.4241" stroke="#606060" stroke-width="1.64331" stroke-linecap="round" stroke-linejoin="round"/>
<path d="M47.3032 34.6934V38.5179C47.3032 40.2461 45.9023 41.647 44.1741 41.647H43.2678C42.0401 41.647 41.0449 40.6518 41.0449 39.4241V39.4241" stroke="#606060" stroke-width="1.64331" stroke-linecap="round" stroke-linejoin="round"/>
<path d="M52.7892 32.3289C52.7892 35.5548 53.9442 38.1699 47.3032 38.1699C40.6622 38.1699 41.8172 35.5548 41.8172 32.3289C41.8172 29.1029 44.2733 25.6533 47.3032 25.6533C50.333 25.6533 52.7892 29.1029 52.7892 32.3289Z" fill="#606060"/>
<circle cx="44.8712" cy="29.4776" r="1.04305" fill="white"/>
<circle cx="27.1371" cy="38.1703" r="4.86758" fill="#FFCEB9"/>
<circle cx="66.7738" cy="38.1703" r="4.86758" fill="#FFCEB9"/>
<g filter="url(#filter0_f_1032_862)">
<path d="M17.9371 43.2831C18.058 42.5228 18.9599 42.175 19.5801 42.631C34.8678 53.8718 58.7731 53.3817 73.0249 42.6076C73.6264 42.1528 74.5148 42.4617 74.6711 43.1995L76.5955 52.2831C77.3473 55.8318 75.6327 59.4866 72.2713 60.8504C55.1781 67.7856 36.7059 67.7621 20.6222 60.78C17.5174 59.4322 15.9055 56.0695 16.4367 52.7267L17.9371 43.2831Z" fill="#8ED2C9"/>
</g>
<path d="M17.9371 43.2831C18.058 42.5228 18.9599 42.175 19.5801 42.631C34.8678 53.8718 58.7731 53.3817 73.0249 42.6076C73.6264 42.1528 74.5148 42.4617 74.6711 43.1995L76.5955 52.2831C77.3473 55.8318 75.6327 59.4866 72.2713 60.8504C55.1781 67.7856 36.7059 67.7621 20.6222 60.78C17.5174 59.4322 15.9055 56.0695 16.4367 52.7267L17.9371 43.2831Z" fill="#8ED2C9"/>
<g filter="url(#filter1_f_1032_862)">
<path d="M55.7328 57.8799C55.0522 57.8799 54.5161 58.4631 54.577 59.1409C55.2112 66.1972 56.1792 70.2242 59.8645 75.3497C60.1236 75.7101 60.5701 75.8836 61.0066 75.8023L61.0607 75.7922C61.3726 76.699 61.8857 77.4252 62.4862 78.0771C62.7042 78.3137 63.0727 78.3288 63.3092 78.1108C63.5458 77.8929 63.5609 77.5244 63.343 77.2878C62.8571 76.7604 62.4712 76.2169 62.2217 75.5757L63.6212 75.3148C63.9247 76.3093 64.4661 77.09 65.1072 77.7859C65.3251 78.0224 65.6936 78.0375 65.9302 77.8196C66.1667 77.6017 66.1818 77.2332 65.9639 76.9966C65.432 76.4192 65.0199 75.8226 64.7755 75.0996L65.9956 74.8721C66.3059 75.8006 66.8261 76.5405 67.4369 77.2034C67.6548 77.44 68.0233 77.4551 68.2599 77.2372C68.4964 77.0192 68.5116 76.6508 68.2936 76.4142C67.7961 75.8742 67.4035 75.3173 67.1548 74.656L68.3738 74.4287C68.6883 75.2926 69.1866 75.9915 69.7666 76.621C69.9845 76.8576 70.353 76.8727 70.5896 76.6547C70.8262 76.4368 70.8413 76.0683 70.6233 75.8318C70.1608 75.3297 69.7889 74.8131 69.539 74.2115L70.756 73.9846C71.072 74.7853 71.5476 75.443 72.0963 76.0386C72.3143 76.2752 72.6827 76.2903 72.9193 76.0723C73.1559 75.8544 73.171 75.4859 72.953 75.2493C72.526 74.7858 72.1762 74.3098 71.9284 73.766L73.1421 73.5397C73.4569 74.2788 73.9091 74.895 74.426 75.4562C74.644 75.6927 75.0124 75.7078 75.249 75.4899C75.4856 75.2719 75.5007 74.9035 75.2827 74.6669C74.8917 74.2424 74.5654 73.8075 74.3229 73.3196L75.5323 73.0941C75.8433 73.773 76.271 74.3476 76.7557 74.8737C76.9737 75.1103 77.3422 75.1254 77.5787 74.9075C77.8153 74.6895 77.8304 74.321 77.6125 74.0845C77.1809 73.616 76.8282 73.1348 76.5799 72.5838C76.8436 72.2284 76.9032 71.7302 76.6637 71.3005C74.1311 66.7551 72.8945 63.6767 71.8459 58.8143C71.729 58.2723 71.2523 57.8799 70.6979 57.8799H55.7328Z" fill="#8ED2C9"/>
</g>
<path fill-rule="evenodd" clip-rule="evenodd" d="M56.6391 57.8799C55.4706 57.8799 54.5478 58.878 54.6619 60.0409C55.2821 66.3593 56.2794 70.2179 59.5644 74.9255C59.8151 75.2848 60.1755 75.5353 60.5789 75.657C60.9015 76.7628 61.4943 77.6176 62.1783 78.36C62.5525 78.7662 63.1851 78.7922 63.5913 78.418C63.9975 78.0438 64.0234 77.4111 63.6492 77.0049C63.2076 76.5255 62.8659 76.0469 62.6395 75.4979L63.2083 75.3919C63.5326 76.485 64.1214 77.3321 64.8 78.0687C65.1742 78.4749 65.8068 78.5009 66.213 78.1267C66.6192 77.7525 66.6451 77.1198 66.2709 76.7136C65.7806 76.1814 65.4134 75.65 65.1906 75.0223L65.5821 74.9493C65.9139 75.9753 66.481 76.7813 67.1304 77.4861C67.5046 77.8923 68.1372 77.9183 68.5434 77.5441C68.9496 77.1699 68.9755 76.5372 68.6013 76.131C68.1474 75.6383 67.7991 75.1464 67.5731 74.5781L67.9561 74.5067C68.293 75.4667 68.8378 76.2315 69.4574 76.9041C69.8316 77.3103 70.4643 77.3362 70.8705 76.962C71.2766 76.5878 71.3026 75.9552 70.9284 75.549C70.5115 75.0964 70.1836 74.6445 69.9578 74.1335L70.3371 74.0627C70.6766 74.9583 71.1983 75.6816 71.7878 76.3215C72.162 76.7277 72.7947 76.7536 73.2009 76.3794C73.607 76.0052 73.633 75.3726 73.2588 74.9664C72.8793 74.5545 72.5736 74.1431 72.3515 73.6872L72.7218 73.6181C73.0613 74.4505 73.5593 75.1322 74.1182 75.7389C74.4924 76.1451 75.1251 76.171 75.5313 75.7968C75.9375 75.4226 75.9634 74.79 75.5892 74.3838C75.2474 74.0128 74.9655 73.6423 74.7506 73.2393C74.87 73.214 74.9841 73.1788 75.0924 73.1348C75.4303 73.9227 75.9108 74.5743 76.4475 75.1569C76.8217 75.563 77.4544 75.589 77.8605 75.2148C78.2667 74.8406 78.2927 74.2079 77.9185 73.8017C77.3103 73.1416 76.8916 72.4827 76.7027 71.6398C76.6497 71.403 76.5167 71.2048 76.3385 71.0672C76.3148 70.7971 76.2367 70.5256 76.0977 70.2677C74.0493 66.4682 72.9297 63.6008 71.9937 59.4802C71.7829 58.5519 70.9669 57.8799 70.0149 57.8799H56.6391Z" fill="#8ED2C9"/>
<path d="M62.794 62.3C62.8336 62.2773 62.8724 62.2525 62.9104 62.2256C63.5597 61.7661 63.716 60.8707 63.2596 60.2258C62.8032 59.5809 61.9068 59.4305 61.2575 59.8901C61.1945 59.9347 61.1361 59.9834 61.0824 60.0356C61.0425 59.4799 60.6904 58.9733 60.145 58.7731C59.4073 58.5023 58.5953 58.8948 58.3314 59.6499C58.1907 60.0524 58.2342 60.4767 58.4172 60.8262C58.3587 60.819 58.2991 60.8152 58.2387 60.815C57.4389 60.8128 56.7986 61.448 56.8086 62.2338C56.8187 63.0196 57.4752 63.6584 58.2751 63.6607C58.3182 63.6608 58.361 63.659 58.4031 63.6555C58.3858 63.6941 58.3699 63.7338 58.3557 63.7746C58.0918 64.5296 58.4759 65.3613 59.2136 65.6321C59.9513 65.9029 60.7633 65.5103 61.0272 64.7553C61.0507 64.6882 61.069 64.6206 61.0824 64.5527C61.3437 64.7885 61.6913 64.9331 62.0711 64.9342C62.871 64.9364 63.5112 64.3012 63.5012 63.5154C63.4946 63.002 63.2121 62.5514 62.794 62.3Z" fill="white"/>
<g style="mix-blend-mode:multiply">
<circle cx="60.4568" cy="62.3096" r="1.0792" transform="rotate(79.3678 60.4568 62.3096)" fill="#FED402"/>
</g>
<path d="M71.4249 67.784C71.4802 67.7522 71.5345 67.7176 71.5876 67.68C72.495 67.0378 72.7136 65.7864 72.0757 64.8851C71.4378 63.9837 70.185 63.7736 69.2775 64.4158C69.1894 64.4782 69.1078 64.5463 69.0329 64.6192C68.977 63.8427 68.4849 63.1346 67.7228 62.8548C66.6917 62.4763 65.5569 63.0249 65.188 64.0802C64.9914 64.6428 65.0522 65.2358 65.308 65.7242C65.2262 65.7141 65.1429 65.7088 65.0585 65.7086C63.9406 65.7055 63.0458 66.5932 63.0598 67.6914C63.0738 68.7897 63.9914 69.6825 65.1093 69.6856C65.1696 69.6858 65.2293 69.6834 65.2882 69.6785C65.264 69.7324 65.2419 69.7879 65.222 69.8448C64.8531 70.9001 65.3899 72.0624 66.421 72.4409C67.452 72.8194 68.5869 72.2707 68.9557 71.2154C68.9885 71.1217 69.0141 71.0272 69.0328 70.9324C69.398 71.2619 69.8837 71.464 70.4146 71.4655C71.5325 71.4686 72.4273 70.5809 72.4133 69.4826C72.4041 68.7651 72.0093 68.1353 71.4249 67.784Z" fill="white"/>
<g style="mix-blend-mode:multiply">
<circle cx="68.1553" cy="67.7978" r="1.50829" transform="rotate(79.3678 68.1553 67.7978)" fill="#FED402"/>
</g>
<defs>
<filter id="filter0_f_1032_862" x="15.3359" y="41.3945" width="62.4336" height="25.6396" filterUnits="userSpaceOnUse" color-interpolation-filters="sRGB">
<feFlood flood-opacity="0" result="BackgroundImageFix"/>
<feBlend mode="normal" in="SourceGraphic" in2="BackgroundImageFix" result="shape"/>
<feGaussianBlur stdDeviation="0.5" result="effect1_foregroundBlur_1032_862"/>
</filter>
<filter id="filter1_f_1032_862" x="53.5723" y="56.8799" width="25.1934" height="22.3848" filterUnits="userSpaceOnUse" color-interpolation-filters="sRGB">
<feFlood flood-opacity="0" result="BackgroundImageFix"/>
<feBlend mode="normal" in="SourceGraphic" in2="BackgroundImageFix" result="shape"/>
<feGaussianBlur stdDeviation="0.5" result="effect1_foregroundBlur_1032_862"/>
</filter>
</defs>
</svg>
