<svg width="80" height="91" viewBox="0 0 80 91" fill="none" xmlns="http://www.w3.org/2000/svg">
<path fill-rule="evenodd" clip-rule="evenodd" d="M3.98308 1.71749C10.2708 -1.69584 20.1164 4.2796 27.7024 10.3468C31.4957 8.60253 35.6065 7.59579 39.8353 7.59579C44.0453 7.59579 48.1186 8.5936 51.8681 10.3236C59.4502 4.26436 69.2787 -1.69149 75.5584 1.71749C84.077 6.34192 76.2695 26.9298 71.74 37.1167C71.8051 37.837 71.8383 38.5562 71.8383 39.2722C71.8383 54.422 56.969 66.7033 39.8353 66.7033C22.7016 66.7033 7.50574 54.422 7.50574 39.2722C7.50574 38.437 7.55193 37.5975 7.64209 36.7569C3.09251 26.4529 -4.43648 6.28811 3.98308 1.71749Z" fill="white"/>
<path fill-rule="evenodd" clip-rule="evenodd" d="M11.1221 51.673C27.2215 51.2812 40.1617 36.9605 40.1617 19.3517C40.1617 15.2243 39.4507 11.2775 38.1547 7.64834C34.519 7.87629 30.9918 8.83395 27.7032 10.346C20.1174 4.27902 10.2724 -1.69568 3.98504 1.71749C-4.43324 6.28742 3.09217 26.4467 7.64195 36.7522C7.55148 37.5943 7.50512 38.4353 7.50512 39.272C7.50512 43.7348 8.82376 47.9487 11.1221 51.673Z" fill="#FED402"/>
<path fill-rule="evenodd" clip-rule="evenodd" d="M43.4099 7.83413C46.35 8.22617 49.1931 9.08846 51.871 10.3242C59.4532 4.26477 69.2821 -1.6916 75.562 1.71749C84.082 6.34264 76.2707 26.9362 71.7415 37.1214C71.8063 37.8401 71.8394 38.5576 71.8394 39.272C71.8394 43.681 70.58 47.8471 68.3719 51.5382C53.2794 49.996 41.4688 36.1744 41.4688 19.3517C41.4688 15.2946 42.1557 11.412 43.4099 7.83413Z" fill="#FED402"/>
<g style="mix-blend-mode:multiply">
<path d="M6.12934 6.79241C2.08322 9.41313 5.46461 20.0157 7.67642 25.7499C8.27179 27.2934 10.3622 27.3838 11.2541 25.9904C14.1726 21.4308 17.3136 18.356 21.9992 14.2629C22.9466 13.4353 22.9068 11.9608 21.869 11.2499C18.2116 8.74455 10.3489 4.05932 6.12934 6.79241Z" fill="#FED402" fill-opacity="0.5"/>
<path d="M73.5425 6.79241C77.5887 9.41313 74.2073 20.0157 71.9955 25.7499C71.4001 27.2934 69.3097 27.3838 68.4178 25.9904C65.4993 21.4308 62.3583 18.356 57.6727 14.2629C56.7253 13.4353 56.7651 11.9608 57.8029 11.2499C61.4603 8.74455 69.3229 4.05932 73.5425 6.79241Z" fill="#FED402" fill-opacity="0.5"/>
</g>
<ellipse cx="26.7738" cy="33.3941" rx="3.59217" ry="4.57185" fill="#56392B"/>
<ellipse cx="28.0793" cy="32.7408" rx="0.979683" ry="1.30624" fill="white"/>
<ellipse cx="3.59217" cy="4.57185" rx="3.59217" ry="4.57185" transform="matrix(-1 0 0 1 57.7949 28.8223)" fill="#56392B"/>
<ellipse cx="0.979683" cy="1.30624" rx="0.979683" ry="1.30624" transform="matrix(-1 0 0 1 53.877 31.4346)" fill="white"/>
<path d="M45.3878 42.2105C45.3878 43.473 43.341 44.4965 40.816 44.4965C38.291 44.4965 36.2441 43.473 36.2441 42.2105C36.2441 40.9481 38.291 39.2715 40.816 39.2715C43.341 39.2715 45.3878 40.9481 45.3878 42.2105Z" fill="#56392B"/>
<circle cx="42.7742" cy="41.2312" r="0.653122" fill="white"/>
<path d="M40.8148 41.2314V45.1502C40.8148 46.593 39.6452 47.7627 38.2023 47.7627H37.2226C36.3209 47.7627 35.5898 47.0316 35.5898 46.1299V46.1299" stroke="#56392B" stroke-width="2" stroke-linecap="round" stroke-linejoin="round"/>
<path d="M40.8141 41.2314V45.1502C40.8141 46.593 41.9837 47.7627 43.4266 47.7627H44.4063C45.308 47.7627 46.0391 47.0316 46.0391 46.1299V46.1299" stroke="#56392B" stroke-width="2" stroke-linecap="round" stroke-linejoin="round"/>
<ellipse cx="23.8344" cy="42.5371" rx="5.22498" ry="3.26561" fill="#FEB1AA"/>
<ellipse cx="57.7972" cy="42.5371" rx="5.22498" ry="3.26561" fill="#FEB1AA"/>
<g filter="url(#filter0_f_1032_811)">
<path d="M10.3841 52.8817C10.5049 52.1214 11.4067 51.7738 12.0262 52.2309C27.912 63.9535 52.8056 63.4416 67.6107 52.2073C68.2115 51.7515 69.0996 52.0604 69.2559 52.7981L71.3153 62.5191C72.0671 66.0678 70.3516 69.7211 66.9945 71.0952C49.1198 78.4115 29.7745 78.3879 12.9641 71.0244C9.86375 69.6664 8.25125 66.3055 8.78238 62.9627L10.3841 52.8817Z" fill="#8ED2C9"/>
</g>
<path d="M10.3841 52.8817C10.5049 52.1214 11.4067 51.7738 12.0262 52.2309C27.912 63.9535 52.8056 63.4416 67.6107 52.2073C68.2115 51.7515 69.0996 52.0604 69.2559 52.7981L71.3153 62.5191C72.0671 66.0678 70.3516 69.7211 66.9945 71.0952C49.1198 78.4115 29.7745 78.3879 12.9641 71.0244C9.86375 69.6664 8.25125 66.3055 8.78238 62.9627L10.3841 52.8817Z" fill="#8ED2C9"/>
<g filter="url(#filter1_f_1032_811)">
<path d="M49.611 68.0996C48.9045 68.0996 48.3479 68.7051 48.4112 69.4087C49.0695 76.7338 50.0744 80.9142 53.9001 86.2349C54.1691 86.6091 54.6326 86.7892 55.0857 86.7047L55.1418 86.6943C55.4657 87.6356 55.9983 88.3895 56.6217 89.0662C56.848 89.3118 57.2305 89.3275 57.4761 89.1012C57.7216 88.875 57.7373 88.4925 57.5111 88.2469C57.0067 87.6994 56.6061 87.1352 56.3471 86.4696L57.7999 86.1987C58.115 87.2311 58.677 88.0415 59.3425 88.7639C59.5687 89.0095 59.9512 89.0252 60.1968 88.7989C60.4424 88.5727 60.4581 88.1902 60.2318 87.9446C59.6797 87.3452 59.2519 86.7258 58.9982 85.9753L60.2647 85.7392C60.5868 86.703 61.1269 87.4711 61.7609 88.1593C61.9872 88.4049 62.3697 88.4206 62.6153 88.1943C62.8609 87.9681 62.8766 87.5856 62.6503 87.34C62.1339 86.7794 61.7263 86.2013 61.4681 85.5148L62.7336 85.2789C63.06 86.1756 63.5774 86.9012 64.1794 87.5547C64.4057 87.8003 64.7882 87.816 65.0338 87.5897C65.2793 87.3635 65.295 86.981 65.0688 86.7354C64.5886 86.2142 64.2026 85.6779 63.9432 85.0533L65.2065 84.8178C65.5345 85.6491 66.0283 86.3318 66.5979 86.9501C66.8241 87.1957 67.2066 87.2113 67.4522 86.9851C67.6978 86.7588 67.7135 86.3763 67.4872 86.1307C67.0439 85.6495 66.6808 85.1554 66.4235 84.5909L67.6835 84.356C68.0104 85.1232 68.4797 85.7629 69.0163 86.3455C69.2426 86.591 69.6251 86.6067 69.8707 86.3805C70.1163 86.1542 70.132 85.7717 69.9057 85.5261C69.4997 85.0854 69.161 84.634 68.9092 84.1275L70.1648 83.8934C70.4876 84.5981 70.9316 85.1946 71.4348 85.7408C71.6611 85.9864 72.0436 86.0021 72.2891 85.7759C72.5347 85.5496 72.5504 85.1671 72.3242 84.9215C71.8761 84.4352 71.51 83.9357 71.2523 83.3636C71.526 82.9947 71.5879 82.4776 71.3393 82.0315C68.7101 77.313 67.4265 74.1173 66.3379 69.0696C66.2166 68.507 65.7217 68.0996 65.1462 68.0996H49.611Z" fill="#8ED2C9"/>
</g>
<path fill-rule="evenodd" clip-rule="evenodd" d="M50.4696 68.1006C49.3011 68.1006 48.3786 69.0997 48.4918 70.2627C49.1367 76.8873 50.1702 80.9095 53.616 85.8341C53.8793 86.2105 54.2631 86.4678 54.6905 86.5822C55.0257 87.7044 55.6314 88.5756 56.331 89.3349C56.7052 89.7411 57.3378 89.767 57.744 89.3928C58.1502 89.0186 58.1761 88.386 57.8019 87.9798C57.3394 87.4777 56.9807 86.9749 56.7436 86.3968L57.4096 86.2726C57.7443 87.3985 58.3513 88.2719 59.0524 89.033C59.4266 89.4391 60.0592 89.4651 60.4654 89.0909C60.8716 88.7167 60.8975 88.084 60.5233 87.6778C60.0104 87.121 59.6251 86.5634 59.3918 85.903L59.8727 85.8134C60.2152 86.8694 60.7996 87.7001 61.4702 88.4279C61.8444 88.8341 62.477 88.8601 62.8832 88.4859C63.2894 88.1117 63.3153 87.479 62.9411 87.0728C62.4659 86.557 62.1003 86.0405 61.8636 85.4422L62.3404 85.3533C62.6881 86.3412 63.2494 87.1291 63.8891 87.8235C64.2633 88.2297 64.8959 88.2556 65.3021 87.8814C65.7083 87.5072 65.7342 86.8746 65.36 86.4684C64.9229 85.9939 64.5786 85.5189 64.3419 84.9801L64.8109 84.8927C65.1611 85.8138 65.6985 86.5587 66.3069 87.219C66.6811 87.6252 67.3137 87.6512 67.7199 87.277C68.1261 86.9028 68.152 86.2701 67.7778 85.8639C67.3794 85.4314 67.058 84.9984 66.825 84.5172L67.2851 84.4314C67.6353 85.2871 68.1482 85.9888 68.7247 86.6146C69.0989 87.0208 69.7315 87.0467 70.1377 86.6725C70.5439 86.2983 70.5698 85.6657 70.1956 85.2595C69.8363 84.8695 69.5397 84.479 69.314 84.0532L69.4077 84.0357C69.5277 84.0133 69.6426 83.981 69.7518 83.9399C70.1001 84.7445 70.5928 85.4117 71.1436 86.0096C71.5178 86.4158 72.1504 86.4417 72.5566 86.0675C72.9628 85.6933 72.9887 85.0607 72.6145 84.6545C71.9803 83.966 71.5413 83.2762 71.3433 82.3926C71.2972 82.1868 71.1907 82.01 71.0465 81.877C71.0251 81.5992 70.9463 81.3194 70.8029 81.0542C68.6342 77.0445 67.4603 74.0456 66.4782 69.7017C66.2683 68.7732 65.452 68.1006 64.5 68.1006H50.4696Z" fill="#8ED2C9"/>
<path d="M56.9372 72.6878C56.9783 72.6642 57.0186 72.6385 57.058 72.6106C57.7321 72.1336 57.8944 71.2041 57.4206 70.5346C56.9468 69.8651 56.0162 69.7091 55.3422 70.1861C55.2768 70.2324 55.2162 70.283 55.1605 70.3371C55.119 69.7603 54.7535 69.2344 54.1874 69.0266C53.4215 68.7454 52.5786 69.1529 52.3046 69.9368C52.1586 70.3546 52.2037 70.7951 52.3937 71.1579C52.333 71.1504 52.2711 71.1465 52.2084 71.1463C51.3781 71.144 50.7134 71.8034 50.7239 72.6191C50.7343 73.4348 51.4158 74.098 52.2462 74.1003C52.291 74.1004 52.3353 74.0986 52.3791 74.095C52.3611 74.1351 52.3446 74.1763 52.3298 74.2186C52.0559 75.0024 52.4546 75.8657 53.2204 76.1468C53.9863 76.428 54.8292 76.0204 55.1032 75.2366C55.1275 75.167 55.1465 75.0968 55.1605 75.0264C55.4317 75.2711 55.7925 75.4212 56.1868 75.4223C57.0171 75.4247 57.6818 74.7653 57.6714 73.9495C57.6646 73.4166 57.3713 72.9488 56.9372 72.6878Z" fill="white"/>
<g style="mix-blend-mode:multiply">
<circle cx="54.5099" cy="72.6984" r="1.12031" transform="rotate(79.3678 54.5099 72.6984)" fill="#FED402"/>
</g>
<path d="M65.8972 78.3804C65.9546 78.3474 66.0109 78.3114 66.066 78.2724C67.0081 77.6057 67.2349 76.3067 66.5727 75.371C65.9105 74.4353 64.61 74.2172 63.668 74.8839C63.5765 74.9486 63.4918 75.0193 63.414 75.0951C63.356 74.2889 62.8452 73.5538 62.054 73.2634C60.9836 72.8705 59.8056 73.44 59.4227 74.5355C59.2186 75.1195 59.2816 75.7351 59.5472 76.2421C59.4623 76.2317 59.3758 76.2262 59.2882 76.2259C58.1278 76.2227 57.1988 77.1443 57.2134 78.2843C57.2279 79.4244 58.1805 80.3512 59.3409 80.3545C59.4036 80.3546 59.4655 80.3521 59.5267 80.347C59.5015 80.403 59.4786 80.4606 59.4579 80.5197C59.075 81.6152 59.6323 82.8218 60.7026 83.2147C61.7729 83.6076 62.951 83.038 63.3339 81.9426C63.3679 81.8453 63.3945 81.7471 63.414 81.6487C63.7931 81.9908 64.2973 82.2006 64.8484 82.2021C66.0088 82.2054 66.9378 81.2838 66.9232 80.1437C66.9137 79.3989 66.5038 78.7451 65.8972 78.3804Z" fill="white"/>
<g style="mix-blend-mode:multiply">
<circle cx="62.5039" cy="78.3951" r="1.56575" transform="rotate(79.3678 62.5039 78.3951)" fill="#FED402"/>
</g>
<defs>
<filter id="filter0_f_1032_811" x="7.68164" y="50.9932" width="64.8086" height="26.5713" filterUnits="userSpaceOnUse" color-interpolation-filters="sRGB">
<feFlood flood-opacity="0" result="BackgroundImageFix"/>
<feBlend mode="normal" in="SourceGraphic" in2="BackgroundImageFix" result="shape"/>
<feGaussianBlur stdDeviation="0.5" result="effect1_foregroundBlur_1032_811"/>
</filter>
<filter id="filter1_f_1032_811" x="47.4062" y="67.0996" width="26.0781" height="23.1611" filterUnits="userSpaceOnUse" color-interpolation-filters="sRGB">
<feFlood flood-opacity="0" result="BackgroundImageFix"/>
<feBlend mode="normal" in="SourceGraphic" in2="BackgroundImageFix" result="shape"/>
<feGaussianBlur stdDeviation="0.5" result="effect1_foregroundBlur_1032_811"/>
</filter>
</defs>
</svg>
