<svg width="79" height="89" viewBox="0 0 79 89" fill="none" xmlns="http://www.w3.org/2000/svg">
<path d="M21.6974 6.6603C23.4765 8.17151 15.6759 10.8155 16.7708 15.1805C17.8654 19.546 25.21 12.9982 26.8524 15.0968C28.4949 17.1955 19.1094 20.6661 22.6557 25.9402C26.2021 31.2143 34.6074 29.1157 34.6074 29.1157V31.2984C34.6074 31.2984 15.8125 36.5868 9.60861 23.1558C3.40426 9.72435 8.60502 0.868164 11.8895 0.868164C15.1741 0.868164 12.6194 6.11451 14.4442 7.62573C16.269 9.13694 19.9183 5.14951 21.6974 6.6603V6.6603Z" fill="#FED080"/>
<path d="M57.0135 6.6603C55.2344 8.17151 63.0351 10.8155 61.9401 15.1805C60.8456 19.546 53.501 12.9982 51.8585 15.0968C50.216 17.1955 59.6016 20.6661 56.0552 25.9402C52.5088 31.2143 44.1035 29.1157 44.1035 29.1157V31.2984C44.1035 31.2984 62.8984 36.5868 69.1023 23.1558C75.3067 9.72435 70.1059 0.868164 66.8214 0.868164C63.5369 0.868164 66.0916 6.11451 64.2667 7.62573C62.4419 9.13694 58.7927 5.14951 57.0135 6.6603V6.6603Z" fill="#FED080"/>
<ellipse cx="10.7959" cy="6.3798" rx="10.7959" ry="6.3798" transform="matrix(0.930138 -0.36721 0.375592 0.926785 0.814453 34.9521)" fill="#BF8969"/>
<g style="mix-blend-mode:multiply">
<ellipse cx="7.46022" cy="4.40861" rx="7.46022" ry="4.40861" transform="matrix(0.930138 -0.36721 0.375592 0.926785 4.65625 35.5547)" fill="#BF8969"/>
</g>
<ellipse cx="10.7959" cy="6.3798" rx="10.7959" ry="6.3798" transform="matrix(-0.930138 -0.36721 -0.375592 0.926785 77.9238 34.9521)" fill="#BF8969"/>
<g style="mix-blend-mode:multiply">
<ellipse cx="7.46022" cy="4.40861" rx="7.46022" ry="4.40861" transform="matrix(-0.930138 -0.36721 -0.375592 0.926785 74.082 35.5547)" fill="#BF8969"/>
</g>
<path d="M38.048 13.3684C38.0292 12.0655 38.719 10.9866 39.5886 10.9586C40.4583 10.9305 41.1784 11.964 41.1971 13.2669L41.2237 15.1158L41.642 13.3941C41.9394 12.1695 42.8432 11.5381 43.6606 11.9838C44.478 12.4295 44.8994 13.7836 44.6019 15.0082L43.1655 20.921C42.868 22.1456 41.9642 22.777 41.1468 22.3313C40.8851 22.1886 40.664 21.9528 40.4941 21.6579C40.2734 21.8471 40.0189 21.9588 39.7468 21.9675C39.5238 21.9747 39.3107 21.9121 39.1167 21.7931C38.9716 22.4586 38.6311 23.021 38.1579 23.279C37.3405 23.7247 36.4368 23.0933 36.1393 21.8688L34.7028 15.9559C34.4053 14.7313 34.8268 13.3773 35.6441 12.9316C36.4615 12.4859 37.3653 13.1173 37.6628 14.3419L38.087 16.0882L38.048 13.3684Z" fill="#BF8969"/>
<path d="M14.4194 39.6188C15.7726 26.7016 26.663 16.8926 39.6508 16.8926V16.8926C52.6387 16.8926 63.5291 26.7016 64.8823 39.6188L66.2545 52.7174C67.7383 66.881 56.6313 79.2124 42.3902 79.2124H36.9115C22.6705 79.2124 11.5634 66.881 13.0472 52.7174L14.4194 39.6188Z" fill="#BF8969"/>
<ellipse cx="39.6511" cy="63.4854" rx="28.7858" ry="15.1348" fill="#FED080"/>
<ellipse cx="22.1436" cy="48.5875" rx="2.37409" ry="1.42445" fill="#FFCEB9"/>
<ellipse cx="57.1612" cy="48.5875" rx="2.37409" ry="1.42445" fill="#FFCEB9"/>
<circle cx="5.3417" cy="5.3417" r="5.3417" transform="matrix(-1 0 0 1 31.0469 35.8857)" fill="#4B2B1D"/>
<circle cx="1.78057" cy="1.78057" r="1.78057" transform="matrix(-1 0 0 1 29.2676 37.666)" fill="white"/>
<circle cx="0.890284" cy="0.890284" r="0.890284" transform="matrix(-1 0 0 1 25.7051 41.8213)" fill="white"/>
<circle cx="53.6034" cy="41.2274" r="5.3417" fill="#4B2B1D"/>
<circle cx="51.8235" cy="39.4466" r="1.78057" fill="white"/>
<circle cx="54.4938" cy="42.7116" r="0.890284" fill="white"/>
<path d="M35.2793 56.9805L39.0567 55.4727L43.2566 56.9805V58.5759C43.2566 60.7788 41.4708 62.5646 39.2679 62.5646V62.5646C37.0651 62.5646 35.2793 60.7788 35.2793 58.5759V56.9805Z" fill="#FEB1AA"/>
<path d="M44.4845 49.4283C44.4845 50.911 42.1493 52.1129 39.2686 52.1129C36.388 52.1129 34.0527 50.911 34.0527 49.4283C34.0527 47.9456 36.388 45.9766 39.2686 45.9766C42.1493 45.9766 44.4845 47.9456 44.4845 49.4283Z" fill="#4B2B1D"/>
<circle cx="41.5698" cy="47.9711" r="0.767044" fill="white"/>
<path d="M39.2445 48.3838V53.8121C39.2445 55.5848 40.6816 57.0219 42.4543 57.0219H42.9027C44.4278 57.0219 45.6641 55.7856 45.6641 54.2605V54.2605" stroke="#4B2B1D" stroke-width="2.27455" stroke-linecap="round" stroke-linejoin="round"/>
<path d="M39.2438 48.3838V53.8121C39.2438 55.5848 37.8067 57.0219 36.034 57.0219H35.5856C34.0605 57.0219 32.8242 55.7856 32.8242 54.2605V54.2605" stroke="#4B2B1D" stroke-width="2.27455" stroke-linecap="round" stroke-linejoin="round"/>
<path fill-rule="evenodd" clip-rule="evenodd" d="M49.8344 69.5723C48.6483 69.5723 47.7181 70.6012 47.8698 71.7775C48.5925 77.3836 49.7781 80.8343 53.5957 85.0788C53.9103 85.4285 54.3395 85.6419 54.7964 85.6973C55.1859 86.7375 55.888 87.519 56.6588 88.1758C57.0791 88.5341 57.7103 88.4837 58.0685 88.0633C58.4267 87.643 58.3764 87.0118 57.956 86.6536C57.4906 86.257 57.1372 85.8738 56.8931 85.4612L57.7688 85.333C58.1498 86.4245 58.8723 87.2355 59.6681 87.9137C60.0885 88.2719 60.7196 88.2215 61.0779 87.8012C61.4361 87.3808 61.3857 86.7497 60.9654 86.3914C60.4385 85.9424 60.0553 85.5107 59.8115 85.034L60.4883 84.9349C60.8797 85.9628 61.5767 86.7371 62.3414 87.3888C62.7617 87.747 63.3929 87.6966 63.7511 87.2763C64.1093 86.8559 64.059 86.2248 63.6386 85.8665C63.1577 85.4567 62.7965 85.0613 62.5518 84.6329L63.2117 84.5363C63.6107 85.5018 64.2816 86.2392 65.0146 86.8639C65.4349 87.2221 66.0661 87.1717 66.4243 86.7514C66.7826 86.331 66.7322 85.6999 66.3118 85.3416C65.8772 84.9713 65.5404 84.6126 65.2989 84.2308L65.9408 84.1368C66.3447 85.0415 66.989 85.7421 67.6901 86.3395C68.1104 86.6978 68.7416 86.6474 69.0998 86.227C69.458 85.8067 69.4077 85.1755 68.9873 84.8173C68.5989 84.4863 68.2885 84.1646 68.0546 83.8274L68.6721 83.7371C69.0781 84.5816 69.6949 85.245 70.3633 85.8146C70.7837 86.1729 71.4148 86.1225 71.7731 85.7021C72.1313 85.2818 72.0809 84.6506 71.6606 84.2924C71.3182 84.0006 71.0365 83.7161 70.8142 83.4218C71.0101 83.3851 71.1918 83.3221 71.3575 83.2374C71.7637 84.07 72.3748 84.7258 73.0366 85.2897C73.4569 85.6479 74.0881 85.5976 74.4463 85.1772C74.8045 84.7569 74.7542 84.1257 74.3338 83.7675C73.6233 83.162 73.1741 82.5879 72.9757 81.8927C72.8949 81.6096 72.6999 81.39 72.455 81.2695C72.4324 80.9173 72.3194 80.5626 72.1023 80.2396C69.9738 77.0726 68.7626 74.572 67.7441 71.0687C67.4892 70.1923 66.6975 69.5723 65.7848 69.5723H49.8344Z" fill="#C03A2B"/>
<path d="M11.4441 58.985C11.5637 58.2196 12.4742 57.8714 13.0949 58.3348C28.2303 69.6338 51.8755 69.1417 65.9872 58.3113C66.5895 57.8491 67.4868 58.1587 67.6416 58.902L69.5666 68.142C70.3003 71.6637 68.6091 75.2869 65.2841 76.66C48.3404 83.657 30.027 83.6334 14.0849 76.5891C11.0149 75.2325 9.42652 71.8977 9.94468 68.5815L11.4441 58.985Z" fill="#E64C3C"/>
</svg>
