<svg width="78" height="86" viewBox="0 0 78 86" fill="none" xmlns="http://www.w3.org/2000/svg">
<path d="M37.2546 4.2426C37.8339 2.9102 39.7243 2.9102 40.3037 4.2426V4.2426C40.8306 5.45457 42.4935 5.59638 43.2172 4.49057V4.49057C44.0123 3.27568 45.8751 3.59936 46.2216 5.00935V5.00935C46.537 6.29225 48.1523 6.71594 49.052 5.74854V5.74854C50.0403 4.68576 51.8212 5.32253 51.9256 6.77009V6.77009C52.0206 8.08753 53.5411 8.78071 54.5912 7.97949V7.97949C55.7448 7.09927 57.392 8.02997 57.2515 9.47422V9.47422C57.1235 10.7889 58.5048 11.7311 59.6755 11.1192V11.1192C60.9617 10.447 62.4276 11.6438 62.0461 13.044V13.044C61.6987 14.3188 62.9007 15.482 64.1586 15.0774V15.0774C65.5406 14.6329 66.7835 16.0604 66.1714 17.3768V17.3768C65.6141 18.5755 66.6025 19.9254 67.9113 19.7401V19.7401C69.3497 19.5365 70.3346 21.1529 69.5088 22.3481V22.3481C68.7569 23.4363 69.5037 24.9334 70.8259 24.9731V24.9731C72.279 25.0168 72.9787 26.7753 71.9622 27.8147V27.8147C71.0367 28.761 71.5213 30.3619 72.8184 30.6258V30.6258C74.2442 30.9158 74.6395 32.7663 73.4609 33.6196V33.6196C72.388 34.3962 72.5972 36.055 73.8315 36.5354V36.5354C75.1886 37.0636 75.2685 38.9539 73.9613 39.5957V39.5957C72.7719 40.1796 72.7022 41.8499 73.8376 42.5328V42.5328C75.085 43.2831 74.8464 45.16 73.4498 45.5706V45.5706C72.1795 45.9441 71.8315 47.5798 72.8342 48.4445V48.4445C73.9357 49.3943 73.3864 51.2053 71.9416 51.3727V51.3727C70.6272 51.525 70.0094 53.0796 70.8511 54.1006V54.1006C71.7754 55.222 70.9302 56.9155 69.4792 56.8352V56.8352C68.1589 56.7621 67.2883 58.1908 67.9452 59.3384V59.3384C68.6666 60.5988 67.5488 62.1262 66.1335 61.8009V61.8009C64.8455 61.5049 63.7464 62.7661 64.2003 64.0073V64.0073C64.6989 65.3704 63.3396 66.6874 62.0007 66.127V66.127C60.7821 65.6169 59.4857 66.6735 59.7242 67.9728V67.9728C59.9862 69.4001 58.424 70.4678 57.1997 69.6888V69.6888C56.0854 68.9797 54.6292 69.8004 54.6457 71.1211V71.1211C54.6638 72.5722 52.9435 73.3589 51.8687 72.3839V72.3839C50.8904 71.4963 49.3167 72.0568 49.1108 73.3616V73.3616C48.8846 74.7955 47.0561 75.2775 46.1612 74.1346V74.1346C45.3466 73.0943 43.7015 73.378 43.2789 74.6299V74.6299C42.8143 76.006 40.931 76.1689 40.2413 74.8907V74.8907C39.6136 73.7274 37.9446 73.7274 37.3169 74.8907V74.8907C36.6272 76.1689 34.7439 76.006 34.2794 74.6299V74.6299C33.8568 73.378 32.2116 73.0943 31.397 74.1346V74.1346C30.5022 75.2775 28.6736 74.7955 28.4474 73.3616V73.3616C28.2416 72.0568 26.6678 71.4963 25.6895 72.3839V72.3839C24.6147 73.3589 22.8944 72.5722 22.9126 71.1211V71.1211C22.9291 69.8004 21.4729 68.9797 20.3585 69.6888V69.6888C19.1343 70.4678 17.5721 69.4001 17.834 67.9728V67.9728C18.0725 66.6735 16.7761 65.6169 15.5575 66.127V66.127C14.2186 66.6874 12.8594 65.3704 13.3579 64.0073V64.0073C13.8118 62.7661 12.7127 61.5049 11.4247 61.8009V61.8009C10.0094 62.1262 8.8916 60.5988 9.61303 59.3384V59.3384C10.2699 58.1908 9.39931 56.7621 8.07902 56.8352V56.8352C6.628 56.9155 5.7828 55.222 6.70718 54.1006V54.1006C7.54882 53.0796 6.93103 51.525 5.61665 51.3727V51.3727C4.17186 51.2053 3.62252 49.3943 4.72401 48.4445V48.4445C5.72676 47.5798 5.3787 45.9441 4.10839 45.5706V45.5706C2.7118 45.16 2.47322 43.2831 3.72065 42.5328V42.5328C4.85601 41.8499 4.78629 40.1796 3.59698 39.5957V39.5957C2.28974 38.9539 2.36959 37.0636 3.7267 36.5354V36.5354C4.961 36.055 5.17027 34.3962 4.09738 33.6196V33.6196C2.91871 32.7663 3.314 30.9158 4.73989 30.6258V30.6258C6.03695 30.3619 6.52151 28.761 5.59604 27.8147V27.8147C4.57953 26.7753 5.27919 25.0168 6.73237 24.9731V24.9731C8.05451 24.9334 8.8013 23.4363 8.0494 22.3481V22.3481C7.22362 21.1529 8.20854 19.5365 9.6469 19.7401V19.7401C10.9558 19.9254 11.9441 18.5755 11.3868 17.3768V17.3768C10.7747 16.0604 12.0176 14.6329 13.3997 15.0774V15.0774C14.6575 15.482 15.8596 14.3188 15.5122 13.044V13.044C15.1306 11.6438 16.5966 10.447 17.8827 11.1192V11.1192C19.0534 11.7311 20.4347 10.7889 20.3068 9.47422V9.47422C20.1662 8.02997 21.8134 7.09927 22.967 7.97948V7.97948C24.0171 8.78071 25.5376 8.08753 25.6326 6.77009V6.77009C25.737 5.32253 27.5179 4.68576 28.5063 5.74854V5.74854C29.4059 6.71594 31.0213 6.29225 31.3366 5.00935V5.00935C31.6831 3.59936 33.5459 3.27568 34.341 4.49057V4.49057C35.0647 5.59638 36.7276 5.45457 37.2546 4.2426V4.2426Z" fill="#3B2514"/>
<path d="M37.4817 9.0035C37.9594 7.85148 39.5978 7.85148 40.0755 9.0035V9.0035C40.5092 10.0495 41.9463 10.1743 42.5458 9.21368V9.21368C43.2017 8.16279 44.8004 8.42713 45.0831 9.63323L45.1046 9.72513C45.362 10.8233 46.7508 11.1744 47.4992 10.3306V10.3306C48.3175 9.40795 49.8427 9.9277 49.9273 11.158L49.9385 11.3208C50.0157 12.444 51.323 13.0179 52.2021 12.3145V12.3145C53.1632 11.5456 54.5767 12.3073 54.463 13.5329L54.4432 13.7459C54.3391 14.8675 55.5306 15.6499 56.5184 15.1085V15.1085C57.599 14.5163 58.8644 15.5021 58.5544 16.6947L58.4939 16.9277C58.2098 18.021 59.2531 18.9927 60.3235 18.6317V18.6317C61.4956 18.2364 62.5782 19.4235 62.0768 20.5543L61.9794 20.7739C61.5193 21.8116 62.3846 22.9489 63.5074 22.7822V22.7822C64.7388 22.5994 65.6064 23.9596 64.9214 24.9991L64.8048 25.1762C64.1762 26.1301 64.8367 27.4039 65.9785 27.4399V27.4399C67.2331 27.4794 67.8569 28.9782 67.0008 29.8961L66.8922 30.0125C66.1074 30.854 66.5407 32.23 67.666 32.47V32.47C68.9048 32.7342 69.2612 34.3311 68.2523 35.0969L68.1826 35.1498C67.2595 35.8505 67.4489 37.2894 68.5219 37.7274V37.7274C69.7052 38.2103 69.7712 39.8619 68.6349 40.4469V40.4469C67.601 40.9791 67.5501 42.4476 68.5337 43.0679V43.0679C69.6099 43.7467 69.416 45.3893 68.2 45.7642V45.7642C67.0964 46.1044 66.7834 47.517 67.64 48.2916L67.7328 48.3755C68.6681 49.2211 68.1754 50.7745 66.9238 50.9266V50.9266C65.7857 51.0648 65.2363 52.3943 65.9449 53.2956L66.0613 53.4437C66.8337 54.4262 66.0847 55.8605 64.837 55.788V55.788C63.7004 55.7221 62.9344 56.9316 63.4799 57.9309L63.5898 58.1323C64.1843 59.2212 63.2054 60.4988 61.9993 60.2081V60.2081C60.8987 59.9429 59.9408 61.0007 60.3136 62.0696L60.394 62.3C60.8004 63.4653 59.6222 64.555 58.4921 64.0589V64.0589C57.4595 63.6057 56.3382 64.4854 56.5326 65.5962L56.5724 65.8234C56.7846 67.036 55.4407 67.9123 54.4167 67.229V67.229C53.4802 66.6041 52.2267 67.2843 52.2401 68.4101L52.2424 68.6013C52.2571 69.8328 50.783 70.4755 49.8907 69.6266V69.6266C49.0744 68.8502 47.722 69.3142 47.5544 70.4282L47.5349 70.5574C47.3511 71.7792 45.7843 72.1727 45.045 71.1826V71.1826C44.369 70.2773 42.9452 70.5366 42.599 71.6122V71.6122C42.2182 72.795 40.5883 72.9574 40.0197 71.8524V71.8524C39.5003 70.8429 38.057 70.8429 37.5375 71.8524V71.8524C36.9689 72.9574 35.3391 72.795 34.9583 71.6122V71.6122C34.612 70.5366 33.1882 70.2773 32.5122 71.1826V71.1826C31.7729 72.1727 30.2061 71.7792 30.0223 70.5574L30.0028 70.4282C29.8352 69.3142 28.4828 68.8502 27.6665 69.6266V69.6266C26.7742 70.4755 25.3001 69.8328 25.3148 68.6013L25.3171 68.4101C25.3306 67.2843 24.077 66.6041 23.1406 67.229V67.229C22.1165 67.9123 20.7726 67.036 20.9848 65.8234L21.0246 65.5962C21.219 64.4854 20.0977 63.6057 19.0651 64.0589V64.0589C17.935 64.555 16.7568 63.4653 17.1632 62.3L17.2436 62.0696C17.6164 61.0007 16.6585 59.9429 15.5579 60.2081V60.2081C14.3519 60.4988 13.3729 59.2212 13.9674 58.1323L14.0773 57.9309C14.6229 56.9316 13.8569 55.722 12.7202 55.788V55.788C11.4725 55.8605 10.7235 54.4262 11.4959 53.4437L11.6123 53.2956C12.3209 52.3943 11.7715 51.0648 10.6334 50.9266V50.9266C9.38179 50.7745 8.88916 49.2211 9.82438 48.3755L9.91722 48.2916C10.7739 47.517 10.4609 46.1044 9.35722 45.7642V45.7642C8.14123 45.3893 7.94728 43.7467 9.02356 43.0679V43.0679C10.0071 42.4476 9.95618 40.9791 8.92232 40.4469V40.4469C7.78599 39.8619 7.85198 38.2103 9.03528 37.7274V37.7274C10.1083 37.2894 10.2978 35.8505 9.37461 35.1498L9.30493 35.0969C8.29601 34.3311 8.65239 32.7342 9.89119 32.47V32.47C11.0166 32.23 11.4498 30.854 10.665 30.0125L10.5565 29.8961C9.70035 28.9782 10.3241 27.4794 11.5787 27.4399V27.4399C12.7205 27.4039 13.381 26.1301 12.7524 25.1762L12.6358 24.9991C11.9508 23.9596 12.8184 22.5994 14.0498 22.7822V22.7822C15.1726 22.9489 16.0379 21.8116 15.5778 20.7739L15.4804 20.5543C14.979 19.4235 16.0616 18.2364 17.2337 18.6317V18.6317C18.3041 18.9927 19.3474 18.021 19.0633 16.9277L19.0028 16.6947C18.6929 15.5021 19.9582 14.5163 21.0388 15.1085V15.1085C22.0266 15.6499 23.2181 14.8675 23.114 13.7459L23.0942 13.5329C22.9805 12.3073 24.394 11.5456 25.3551 12.3145V12.3145C26.2343 13.0179 27.5415 12.444 27.6188 11.3208L27.63 11.158C27.7145 9.9277 29.2397 9.40795 30.058 10.3306V10.3306C30.8064 11.1744 32.1952 10.8233 32.4526 9.72513L32.4742 9.63323C32.7569 8.42713 34.3555 8.16279 35.0114 9.21368V9.21368C35.611 10.1743 37.048 10.0495 37.4817 9.0035V9.0035Z" fill="#61432F"/>
<circle cx="21.4323" cy="25.9597" r="5.58858" fill="#FFE6BB"/>
<circle cx="21.1464" cy="25.953" r="3.86902" fill="#ECC79F"/>
<circle cx="54.9089" cy="25.9597" r="5.58858" fill="#FFE6BB"/>
<circle cx="54.6229" cy="25.953" r="3.86902" fill="#ECC79F"/>
<path d="M14.9355 38.8691C18.1799 29.3904 27.1156 22.9492 37.1342 22.9492H39.9955C50.2497 22.9492 59.3725 29.6015 62.5878 39.3385V39.3385C64.0739 43.8389 65.0589 48.5236 65.5036 53.242V53.242C66.7977 66.9705 55.9989 78.835 42.2096 78.835H34.8058C21.2714 78.835 10.6372 67.2506 11.7928 53.7656V53.7656C12.2267 48.7021 13.2896 43.6773 14.9355 38.8691V38.8691Z" fill="#FFE6BB"/>
<circle cx="23.9023" cy="56.9462" r="3.09955" fill="#FFCEB9"/>
<circle cx="53.6581" cy="56.9462" r="3.09955" fill="#FFCEB9"/>
<path d="M47.4571 45.9823C47.4571 43.4783 43.7568 41.4485 38.441 41.4485C33.1252 41.4485 30.0996 43.4783 30.0996 45.9823C30.0996 48.4862 33.1252 53.8467 38.441 53.8467C43.7568 53.8467 47.4571 48.4862 47.4571 45.9823Z" fill="#ECC79F"/>
<rect x="38.1094" y="46.6143" width="1.01621" height="4.06484" rx="0.508104" fill="#3A211F"/>
<ellipse cx="38.785" cy="45.7673" rx="3.04863" ry="1.86305" fill="#3A211F"/>
<circle cx="36.9222" cy="45.0901" r="0.508104" fill="white"/>
<path d="M35.0605 49.1553C36.7542 50.6796 40.518 50.6796 42.2116 49.1553" stroke="#3A211F" stroke-width="1.76467" stroke-linecap="round"/>
<circle cx="27.3111" cy="40.2681" r="2.78959" fill="#3A211F"/>
<circle cx="28.0822" cy="39.6662" r="0.929864" fill="white"/>
<circle cx="2.78959" cy="2.78959" r="2.78959" transform="matrix(-1 0 0 1 52.582 37.4785)" fill="#3A211F"/>
<circle cx="0.929864" cy="0.929864" r="0.929864" transform="matrix(-1 0 0 1 51.791 38.7363)" fill="white"/>
<path d="M27.7207 45.507C24.0985 45.1889 22.0437 45.108 18.3207 45.2039" stroke="#ECC79F" stroke-width="1.46809" stroke-linecap="round" stroke-linejoin="round"/>
<path d="M26.7903 51.0574C23.6621 51.5941 21.9495 51.9897 18.9974 52.9285" stroke="#ECC79F" stroke-width="1.46809" stroke-linecap="round" stroke-linejoin="round"/>
<path d="M26.5459 48.3863C23.2756 48.2551 21.6788 48.4585 18.413 48.7375" stroke="#ECC79F" stroke-width="1.46809" stroke-linecap="round" stroke-linejoin="round"/>
<path d="M49.418 45.507C53.0402 45.1889 55.095 45.108 58.818 45.2039" stroke="#ECC79F" stroke-width="1.46809" stroke-linecap="round" stroke-linejoin="round"/>
<path d="M50.3484 51.0574C53.4766 51.5941 55.1891 51.9897 58.1413 52.9285" stroke="#ECC79F" stroke-width="1.46809" stroke-linecap="round" stroke-linejoin="round"/>
<path d="M49.9736 48.3863C53.2439 48.2551 54.8408 48.4585 58.1065 48.7375" stroke="#ECC79F" stroke-width="1.46809" stroke-linecap="round" stroke-linejoin="round"/>
<path fill-rule="evenodd" clip-rule="evenodd" d="M49.1371 66.8955C47.9511 66.8955 47.0208 67.9245 47.1725 69.1008C47.8954 74.7082 49.0812 78.1596 52.8997 82.4051C53.2145 82.7551 53.6442 82.9685 54.1015 83.0237C54.4911 84.0639 55.1932 84.8454 55.9641 85.5023C56.3844 85.8605 57.0156 85.8102 57.3738 85.3898C57.732 84.9695 57.6816 84.3383 57.2613 83.9801C56.7957 83.5833 56.4423 83.2 56.1981 82.7873L57.0738 82.6591C57.4548 83.7507 58.1775 84.5619 58.9734 85.2402C59.3938 85.5984 60.0249 85.548 60.3831 85.1277C60.7414 84.7073 60.691 84.0762 60.2706 83.7179C59.7437 83.2688 59.3604 82.837 59.1165 82.3601L59.7933 82.2611C60.1847 83.2891 60.8819 84.0635 61.6466 84.7153C62.067 85.0735 62.6982 85.0231 63.0564 84.6028C63.4146 84.1824 63.3642 83.5513 62.9439 83.193C62.4629 82.7831 62.1016 82.3875 61.8568 81.959L62.5188 81.8621C62.9178 82.8279 63.5889 83.5655 64.3221 84.1904C64.7425 84.5486 65.3736 84.4982 65.7319 84.0779C66.0901 83.6575 66.0397 83.0264 65.6194 82.6681C65.1845 82.2975 64.8475 81.9387 64.6059 81.5566L65.2461 81.4629C65.65 82.3675 66.2943 83.068 66.9954 83.6655C67.4157 84.0237 68.0469 83.9733 68.4051 83.553C68.7633 83.1326 68.713 82.5014 68.2926 82.1432C67.9042 81.8123 67.5939 81.4907 67.3599 81.1535L67.9794 81.0628C68.3855 81.9075 69.0024 82.5709 69.6709 83.1406C70.0912 83.4988 70.7224 83.4484 71.0806 83.0281C71.4388 82.6077 71.3884 81.9765 70.9681 81.6183C70.6256 81.3265 70.3439 81.0419 70.1216 80.7476C70.3174 80.711 70.499 80.648 70.6647 80.5634C71.0709 81.3962 71.6822 82.0521 72.3441 82.6162C72.7644 82.9744 73.3956 82.9241 73.7538 82.5037C74.112 82.0834 74.0617 81.4522 73.6413 81.094C72.9307 80.4884 72.4814 79.9141 72.2829 79.2187C72.2022 78.9358 72.0074 78.7163 71.7627 78.5958C71.7402 78.2434 71.6271 77.8885 71.4099 77.5653C69.2808 74.3974 68.0693 71.8962 67.0505 68.3919C66.7957 67.5155 66.0039 66.8955 65.0912 66.8955H49.1371Z" fill="#C03A2B"/>
<path d="M10.7395 56.3072C10.8591 55.5419 11.7696 55.1936 12.3904 55.657C27.5286 66.9585 51.1785 66.4662 65.2929 55.6336C65.8952 55.1713 66.7925 55.4809 66.9474 56.2242L68.873 65.4674C69.6067 68.9891 67.9155 72.6123 64.5905 73.9854C47.643 80.9843 29.3255 80.9607 13.3798 73.9145C10.3098 72.5579 8.72144 69.2231 9.2396 65.9069L10.7395 56.3072Z" fill="#E64C3C"/>
</svg>
