<svg width="75" height="89" viewBox="0 0 75 89" fill="none" xmlns="http://www.w3.org/2000/svg">
<path d="M26.5427 6.2445C25.9539 9.26869 32.2551 13.301 32.2551 13.301L50.0642 12.9771C50.0642 12.9771 43.4728 0.868164 40.1126 0.868164C38.3506 0.868164 38.4364 2.53458 38.9167 4.11978C39.0376 4.51861 38.2363 5.07356 37.9234 4.79829C36.1174 3.20935 33.5426 1.34426 31.5831 1.54021C29.7367 1.72483 31.0743 3.73927 32.6543 5.51692C32.938 5.83615 32.3504 6.63358 31.9616 6.45694C29.6135 5.39037 26.8725 4.55083 26.5427 6.2445Z" fill="#C79D72"/>
<path d="M4.88274 36.4146C5.84975 21.7607 18.0178 10.3691 32.7036 10.3691H44.7818C59.7515 10.3691 72.1312 22.0283 73.0278 36.9711V36.9711C74.0105 53.3491 61.9091 67.8063 45.5019 67.891C40.9151 67.9147 36.418 67.8277 31.945 67.6486C15.7272 66.9993 3.814 52.6102 4.88274 36.4146V36.4146Z" fill="#C79D72"/>
<path d="M10.6939 37.4694C11.4917 25.3667 21.541 15.958 33.6699 15.958H43.5803C55.9436 15.958 66.1676 25.5877 66.9073 37.9288V37.9288C67.7179 51.4529 57.7257 63.3912 44.1776 63.4599C40.4099 63.479 36.7154 63.4075 33.0408 63.2605C19.6491 62.7249 9.81235 50.8428 10.6939 37.4694V37.4694Z" fill="#EDD49B"/>
<path d="M50.6359 52.4527C50.6359 58.2278 45.587 61.3717 39.359 61.3717C33.1309 61.3717 28.082 58.2278 28.082 52.4527C28.082 46.6776 33.1309 41.0732 39.359 41.0732C45.587 41.0732 50.6359 46.6776 50.6359 52.4527Z" fill="#B19574"/>
<rect x="38.6719" y="47.4004" width="1.58682" height="6.87623" rx="0.793411" fill="#09060D"/>
<path d="M34.4238 51.9111C36.8135 54.2852 42.124 54.2852 44.5137 51.9111" stroke="#09060D" stroke-width="2.5" stroke-linecap="round"/>
<path d="M44.1292 46.5868C44.1292 48.3067 42.0379 49.7009 39.4582 49.7009C36.8784 49.7009 34.7871 48.3067 34.7871 46.5868C34.7871 44.867 36.8784 42.7148 39.4582 42.7148C42.0379 42.7148 44.1292 44.867 44.1292 46.5868Z" fill="#09060D"/>
<circle cx="41.6404" cy="45.3416" r="0.622806" fill="white"/>
<path fill-rule="evenodd" clip-rule="evenodd" d="M11.5692 32.533C11.1059 34.11 10.8074 35.7602 10.694 37.4643C10.3074 43.2772 11.9654 48.8053 15.0684 53.2265C19.2164 49.8177 23.9552 47.1892 28.2295 44.9509C33.1537 42.3723 35.2367 35.888 32.8807 30.9321C31.4204 27.8602 28.5475 26.0424 25.3316 26.5533C18.8183 27.5883 14.9397 29.5984 11.5692 32.533Z" fill="#AA6C56"/>
<path fill-rule="evenodd" clip-rule="evenodd" d="M65.3257 30.7939C66.2057 33.0166 66.7531 35.4119 66.9048 37.9205C67.228 43.2642 65.8483 48.358 63.2215 52.5572C59.2801 49.4701 54.885 47.0405 50.8947 44.9509C45.9705 42.3723 43.8875 35.888 46.2435 30.9321C47.7039 27.8602 50.5767 26.0424 53.7926 26.5533C58.9269 27.3691 62.4241 28.7909 65.3257 30.7939Z" fill="#AA6C56"/>
<path d="M7.42354 12.6747C10.4708 13.2075 13.357 16.6392 13.357 16.6392C13.357 16.6392 9.47769 18.8882 6.43044 18.3555C3.38318 17.8228 0.497006 14.391 0.497006 14.391C0.497006 14.391 4.37628 12.142 7.42354 12.6747Z" fill="#34876F"/>
<path d="M16.8119 9.05357C16.093 12.0623 12.6929 14.7806 12.6929 14.7806C12.6929 14.7806 10.8889 10.8189 11.6078 7.81011C12.3268 4.80134 15.7269 2.08306 15.7269 2.08306C15.7269 2.08306 17.5308 6.0448 16.8119 9.05357Z" fill="#34876F"/>
<circle cx="23.0338" cy="40.5475" r="5.02993" fill="#09060D"/>
<circle cx="24.7115" cy="39.4293" r="1.11776" fill="white"/>
<circle cx="5.02993" cy="5.02993" r="5.02993" transform="matrix(-1 0 0 1 60.584 35.5176)" fill="#09060D"/>
<circle cx="1.11776" cy="1.11776" r="1.11776" transform="matrix(-1 0 0 1 54.9941 38.3115)" fill="white"/>
<circle cx="23.0877" cy="52.2849" r="3.35329" fill="#FFBAA0"/>
<circle cx="56.0603" cy="52.2849" r="3.35329" fill="#FFBAA0"/>
<path d="M26.5812 11.1804C26.6588 11.115 26.734 11.0453 26.8064 10.9714C28.0455 9.7082 28.0329 7.68645 26.7782 6.45568C25.5235 5.22492 23.5019 5.2512 22.2628 6.51439C22.1425 6.63702 22.034 6.7668 21.9373 6.90232C21.6296 5.70193 20.6581 4.7325 19.385 4.51048C17.6629 4.21014 16.0412 5.39126 15.7628 7.14859C15.6144 8.08545 15.8777 8.99693 16.4169 9.68935C16.2859 9.69676 16.154 9.71206 16.0217 9.73563C14.2701 10.0478 13.1204 11.692 13.4539 13.408C13.7873 15.124 15.4776 16.2621 17.2293 15.9499C17.3238 15.9331 17.4166 15.9123 17.5075 15.8879C17.4848 15.9793 17.4659 16.0724 17.4509 16.1673C17.1725 17.9246 18.3429 19.5927 20.065 19.893C21.7872 20.1934 23.4089 19.0123 23.6873 17.2549C23.712 17.0989 23.7253 16.9435 23.7278 16.7897C24.3932 17.2022 25.2112 17.381 26.043 17.2328C27.7947 16.9206 28.9444 15.2764 28.6109 13.5604C28.3931 12.4393 27.5961 11.5649 26.5812 11.1804Z" fill="#FFA787"/>
<g style="mix-blend-mode:multiply">
<circle cx="21.4651" cy="12.1293" r="2.40064" transform="rotate(69.1033 21.4651 12.1293)" fill="#FEB1AA" fill-opacity="0.5"/>
</g>
<path d="M17.4737 18.3787C17.5474 18.3165 17.6188 18.2503 17.6877 18.1801C18.8647 16.9802 18.8527 15.0597 17.6608 13.8906C16.469 12.7215 14.5486 12.7465 13.3716 13.9464C13.2573 14.0629 13.1543 14.1862 13.0624 14.3149C12.7701 13.1746 11.8473 12.2538 10.638 12.0429C9.00213 11.7576 7.46164 12.8795 7.19721 14.5488C7.05625 15.4388 7.3064 16.3046 7.81858 16.9623C7.69414 16.9693 7.56884 16.9839 7.44321 17.0063C5.77931 17.3028 4.68722 18.8646 5.00396 20.4947C5.32071 22.1247 6.92634 23.2058 8.59024 22.9092C8.68004 22.8932 8.76818 22.8736 8.85452 22.8504C8.833 22.9371 8.81501 23.0256 8.80074 23.1157C8.53632 24.785 9.64808 26.3696 11.2839 26.6549C12.9198 26.9402 14.4603 25.8182 14.7247 24.1489C14.7482 24.0006 14.7608 23.8531 14.7632 23.707C15.3953 24.0988 16.1723 24.2687 16.9625 24.1278C18.6264 23.8313 19.7185 22.2695 19.4017 20.6395C19.1948 19.5745 18.4378 18.7439 17.4737 18.3787Z" fill="#FFCE05"/>
<g style="mix-blend-mode:multiply">
<circle cx="12.6127" cy="19.2797" r="2.28039" transform="rotate(69.1033 12.6127 19.2797)" fill="#FED402"/>
</g>
<path fill-rule="evenodd" clip-rule="evenodd" d="M49.4084 69.5723C48.2216 69.5723 47.2911 70.6025 47.4443 71.7793C48.1742 77.3882 49.3718 80.8394 53.23 85.0874C53.5487 85.4384 53.9834 85.6504 54.4448 85.7016C54.8384 86.7421 55.5468 87.523 56.3233 88.1787C56.7453 88.5351 57.3762 88.4819 57.7325 88.0599C58.0889 87.638 58.0357 87.0071 57.6137 86.6507C57.145 86.2549 56.7893 85.8728 56.5432 85.4621L57.4407 85.3319C57.8252 86.4264 58.5554 87.2384 59.3584 87.9166C59.7804 88.2729 60.4113 88.2197 60.7676 87.7978C61.124 87.3758 61.0708 86.7449 60.6489 86.3886C60.1181 85.9403 59.7322 85.5096 59.4863 85.0352L60.1862 84.9337C60.5812 85.9646 61.2857 86.7399 62.0574 87.3917C62.4794 87.748 63.1103 87.6948 63.4667 87.2729C63.823 86.8509 63.7698 86.22 63.3479 85.8637C62.8635 85.4546 62.4998 85.0602 62.2531 84.6339L62.9346 84.535C63.3373 85.5035 64.0154 86.2419 64.7553 86.8668C65.1773 87.2231 65.8082 87.1699 66.1645 86.748C66.5209 86.326 66.4677 85.6951 66.0458 85.3388C65.6082 84.9692 65.2691 84.6117 65.0258 84.2317L65.6876 84.1357C66.0954 85.0431 66.7466 85.7447 67.4543 86.3424C67.8763 86.6988 68.5072 86.6456 68.8636 86.2236C69.2199 85.8017 69.1667 85.1708 68.7448 84.8144C68.354 84.4844 68.0417 84.1639 67.8061 83.8284L68.4428 83.736C68.8529 84.5832 69.4763 85.2476 70.1511 85.8175C70.5731 86.1739 71.204 86.1207 71.5603 85.6987C71.9167 85.2768 71.8635 84.6459 71.4415 84.2895C71.0975 83.999 70.8143 83.7158 70.5907 83.4233C70.7936 83.3871 70.9815 83.3226 71.1524 83.2351C71.5625 84.0709 72.1805 84.7281 72.849 85.2926C73.2709 85.649 73.9019 85.5958 74.2582 85.1738C74.6146 84.7519 74.5614 84.121 74.1394 83.7646C73.4215 83.1583 72.9686 82.5841 72.7689 81.8904C72.6876 81.6082 72.4929 81.3894 72.2485 81.2694C72.226 80.9138 72.1115 80.5557 71.8908 80.2303C69.746 77.0664 68.5251 74.5665 67.498 71.0643C67.2416 70.1901 66.4508 69.5723 65.5398 69.5723H49.4084Z" fill="#C03A2B"/>
<path d="M10.696 58.9729C10.8163 58.2103 11.7221 57.8623 12.3425 58.3218C27.621 69.6387 51.5071 69.1454 65.7508 58.2984C66.3526 57.8401 67.245 58.1493 67.4007 58.8896L69.3391 68.1102C70.0825 71.6466 68.3786 75.2867 65.0343 76.6558C47.9304 83.6583 29.4426 83.6348 13.3501 76.5852C10.2617 75.2322 8.66056 71.8826 9.18571 68.552L10.696 58.9729Z" fill="#E64C3C"/>
</svg>
