<svg width="81" height="83" viewBox="0 0 81 83" fill="none" xmlns="http://www.w3.org/2000/svg">
<circle cx="10.3616" cy="32.0803" r="9.49636" fill="#D2714C"/>
<circle cx="10.9563" cy="32.0803" r="7.12227" fill="#FFE1C2"/>
<circle cx="9.49636" cy="9.49636" r="9.49636" transform="matrix(-1 0 0 1 80.9922 22.584)" fill="#D2714C"/>
<circle cx="7.12227" cy="7.12227" r="7.12227" transform="matrix(-1 0 0 1 78.0234 24.958)" fill="#FFE1C2"/>
<path fill-rule="evenodd" clip-rule="evenodd" d="M45.2404 0.21005C46.7805 0.77061 47.5746 2.47355 47.0141 4.01368L44.7811 10.1487C44.301 11.4677 42.983 12.2395 41.647 12.0818C41.4278 12.2412 41.1829 12.3729 40.9156 12.4702C39.3755 13.0308 37.6725 12.2367 37.112 10.6966L34.879 4.56155C34.3184 3.02142 35.1125 1.31848 36.6527 0.757919C38.1928 0.197359 39.8957 0.991454 40.4563 2.53158L40.8468 3.60459L41.4368 1.98371C41.9973 0.443585 43.7003 -0.35051 45.2404 0.21005Z" fill="#D2714C"/>
<path d="M71.4961 35.1383C71.4961 49.1837 57.811 60.5697 40.9297 60.5697C24.0483 60.5697 10.3633 49.1837 10.3633 35.1383C10.3633 21.093 24.0483 5.37207 40.9297 5.37207C57.811 5.37207 71.4961 21.093 71.4961 35.1383Z" fill="#D2714C"/>
<path fill-rule="evenodd" clip-rule="evenodd" d="M15.3281 49.0393C15.6074 43.4516 20.2069 38.6094 26.305 38.6094H55.6024C61.6776 38.6094 66.2665 43.4158 66.576 48.9784C61.126 55.9554 51.6747 60.5696 40.9282 60.5696C30.213 60.5696 20.7855 55.9823 15.3281 49.0393Z" fill="#FFE1C2"/>
<path fill-rule="evenodd" clip-rule="evenodd" d="M41.2247 39.4298C39.1796 44.3538 34.7728 47.7607 29.6662 47.7607C22.6104 47.7607 16.8906 41.2566 16.8906 33.2334C16.8906 25.2102 22.6104 18.7061 29.6662 18.7061C34.7728 18.7061 39.1796 22.113 41.2247 27.037C43.2697 22.113 47.6765 18.7061 52.7831 18.7061C59.8389 18.7061 65.5587 25.2102 65.5587 33.2334C65.5587 41.2566 59.8389 47.7607 52.7831 47.7607C47.6765 47.7607 43.2697 44.3538 41.2247 39.4298Z" fill="#FFE1C2"/>
<ellipse cx="4.74818" cy="5.93522" rx="4.74818" ry="5.93522" transform="matrix(-1 0 0 1 33.5098 30.2988)" fill="#562B30"/>
<ellipse cx="1.78057" cy="2.07733" rx="1.78057" ry="2.07733" transform="matrix(-1 0 0 1 31.7285 32.0791)" fill="white"/>
<circle cx="0.890284" cy="0.890284" r="0.890284" transform="matrix(-1 0 0 1 28.168 36.2344)" fill="white"/>
<ellipse cx="54.2814" cy="36.2341" rx="4.74818" ry="5.93522" fill="#562B30"/>
<ellipse cx="53.095" cy="34.1564" rx="1.78057" ry="2.07733" fill="white"/>
<circle cx="55.7653" cy="37.1247" r="0.890284" fill="white"/>
<path d="M45.7884 42.2568C45.7884 43.3652 44.0427 44.0802 41.8893 44.0802C39.7359 44.0802 37.9902 43.3652 37.9902 42.2568C37.9902 41.1484 39.7359 39.7959 41.8893 39.7959C44.0427 39.7959 45.7884 41.1484 45.7884 42.2568Z" fill="#562B30"/>
<circle cx="43.6794" cy="41.3278" r="0.550461" fill="white"/>
<path d="M41.873 40.9258V44.9837C41.873 46.3088 42.9473 47.3831 44.2724 47.3831H44.6076C45.7477 47.3831 46.6719 46.4589 46.6719 45.3189V45.3189" stroke="#562B30" stroke-width="1.70032" stroke-linecap="round" stroke-linejoin="round"/>
<path d="M41.8731 40.9258V44.9837C41.8731 46.3088 40.7988 47.3831 39.4737 47.3831H39.1384C37.9984 47.3831 37.0742 46.4589 37.0742 45.3189V45.3189" stroke="#562B30" stroke-width="1.70032" stroke-linecap="round" stroke-linejoin="round"/>
<ellipse cx="23.717" cy="44.8425" rx="4.45142" ry="3.26437" fill="#FFB99B"/>
<ellipse cx="58.7346" cy="44.8425" rx="4.45142" ry="3.26437" fill="#FFB99B"/>
<g filter="url(#filter0_f_1032_902)">
<path d="M12.7496 46.8495C12.8705 46.0892 13.7724 45.7414 14.3926 46.1974C29.6803 57.4382 53.5856 56.9481 67.8374 46.174C68.4389 45.7192 69.3273 46.0281 69.4836 46.7659L71.408 55.8495C72.1598 59.3982 70.4452 63.053 67.0838 64.4168C49.9906 71.352 31.5184 71.3285 15.4347 64.3464C12.3299 62.9986 10.718 59.6359 11.2492 56.2931L12.7496 46.8495Z" fill="#8ED2C9"/>
</g>
<path d="M12.7496 46.8495C12.8705 46.0892 13.7724 45.7414 14.3926 46.1974C29.6803 57.4382 53.5856 56.9481 67.8374 46.174C68.4389 45.7192 69.3273 46.0281 69.4836 46.7659L71.408 55.8495C72.1598 59.3982 70.4452 63.053 67.0838 64.4168C49.9906 71.352 31.5184 71.3285 15.4347 64.3464C12.3299 62.9986 10.718 59.6359 11.2492 56.2931L12.7496 46.8495Z" fill="#8ED2C9"/>
<g filter="url(#filter1_f_1032_902)">
<path d="M50.5453 61.4463C49.8647 61.4463 49.3286 62.0295 49.3895 62.7074C50.0237 69.7636 50.9917 73.7907 54.677 78.9161C54.9361 79.2765 55.3826 79.45 55.8191 79.3687L55.8732 79.3586C56.1851 80.2654 56.6982 80.9916 57.2987 81.6435C57.5167 81.8801 57.8852 81.8952 58.1217 81.6772C58.3583 81.4593 58.3734 81.0908 58.1555 80.8542C57.6696 80.3268 57.2837 79.7833 57.0342 79.1421L58.4337 78.8812C58.7372 79.8757 59.2786 80.6564 59.9197 81.3523C60.1376 81.5888 60.5061 81.604 60.7427 81.386C60.9792 81.1681 60.9943 80.7996 60.7764 80.563C60.2445 79.9856 59.8324 79.389 59.588 78.666L60.8081 78.4385C61.1184 79.367 61.6386 80.1069 62.2494 80.7698C62.4673 81.0064 62.8358 81.0215 63.0724 80.8036C63.3089 80.5856 63.3241 80.2172 63.1061 79.9806C62.6086 79.4406 62.216 78.8837 61.9673 78.2224L63.1863 77.9951C63.5008 78.859 63.9991 79.5579 64.5791 80.1874C64.797 80.424 65.1655 80.4391 65.4021 80.2212C65.6387 80.0032 65.6538 79.6347 65.4358 79.3982C64.9733 78.8961 64.6014 78.3795 64.3515 77.7779L65.5685 77.551C65.8845 78.3517 66.3601 79.0094 66.9088 79.605C67.1268 79.8416 67.4952 79.8567 67.7318 79.6387C67.9684 79.4208 67.9835 79.0523 67.7655 78.8157C67.3385 78.3522 66.9887 77.8762 66.7409 77.3324L67.9546 77.1061C68.2694 77.8452 68.7216 78.4614 69.2385 79.0226C69.4565 79.2591 69.8249 79.2742 70.0615 79.0563C70.2981 78.8383 70.3132 78.4699 70.0952 78.2333C69.7042 77.8088 69.3779 77.3739 69.1354 76.886L70.3448 76.6605C70.6558 77.3394 71.0835 77.914 71.5682 78.4401C71.7862 78.6767 72.1547 78.6918 72.3912 78.4739C72.6278 78.2559 72.6429 77.8875 72.425 77.6509C71.9934 77.1824 71.6407 76.7012 71.3924 76.1502C71.6561 75.7948 71.7157 75.2966 71.4762 74.8669C68.9436 70.3216 67.707 67.2432 66.6584 62.3807C66.5415 61.8387 66.0648 61.4463 65.5104 61.4463H50.5453Z" fill="#8ED2C9"/>
</g>
<path fill-rule="evenodd" clip-rule="evenodd" d="M51.4535 61.4473C50.285 61.4473 49.3622 62.4454 49.4764 63.6083C50.0965 69.9267 51.0938 73.7853 54.3789 78.4929C54.6296 78.8521 54.9899 79.1027 55.3933 79.2244C55.7159 80.3302 56.3087 81.1849 56.9927 81.9274C57.3669 82.3336 57.9996 82.3595 58.4058 81.9853C58.812 81.6111 58.8379 80.9785 58.4637 80.5723C58.022 80.0929 57.6803 79.6142 57.454 79.0653L58.0227 78.9592C58.347 80.0524 58.9358 80.8995 59.6144 81.6361C59.9886 82.0423 60.6213 82.0682 61.0275 81.694C61.4337 81.3198 61.4596 80.6872 61.0854 80.281C60.595 79.7487 60.2279 79.2173 60.005 78.5897L60.3965 78.5167C60.7284 79.5426 61.2955 80.3487 61.9448 81.0535C62.319 81.4597 62.9517 81.4856 63.3579 81.1114C63.7641 80.7372 63.79 80.1046 63.4158 79.6984C62.9619 79.2057 62.6135 78.7137 62.3875 78.1455L62.7706 78.074C63.1075 79.0341 63.6522 79.7989 64.2719 80.4715C64.6461 80.8777 65.2787 80.9036 65.6849 80.5294C66.0911 80.1552 66.117 79.5226 65.7428 79.1164C65.3259 78.6638 64.998 78.2119 64.7722 77.7009L65.1516 77.6301C65.491 78.5257 66.0128 79.249 66.6023 79.8889C66.9765 80.2951 67.6091 80.321 68.0153 79.9468C68.4215 79.5726 68.4474 78.94 68.0732 78.5338C67.6938 78.1219 67.3881 77.7105 67.1659 77.2546L67.5363 77.1855C67.8757 78.0179 68.3738 78.6996 68.9327 79.3063C69.3069 79.7125 69.9395 79.7384 70.3457 79.3642C70.7519 78.99 70.7778 78.3574 70.4036 77.9512C70.0619 77.5802 69.78 77.2097 69.565 76.8066C69.6845 76.7814 69.7986 76.7462 69.9069 76.7022C70.2448 77.49 70.7253 78.1417 71.262 78.7242C71.6362 79.1304 72.2688 79.1564 72.675 78.7822C73.0812 78.408 73.1071 77.7753 72.7329 77.3691C72.1247 76.7089 71.706 76.0501 71.5172 75.2071C71.4641 74.9703 71.3311 74.7721 71.153 74.6346C71.1292 74.3645 71.0512 74.093 70.9121 73.8351C68.8638 70.0355 67.7441 67.1682 66.8082 63.0476C66.5973 62.1193 65.7814 61.4473 64.8294 61.4473H51.4535Z" fill="#8ED2C9"/>
<path d="M57.6065 65.8674C57.6461 65.8447 57.6849 65.8199 57.7229 65.793C58.3722 65.3335 58.5285 64.4381 58.0721 63.7932C57.6157 63.1482 56.7193 62.9979 56.07 63.4574C56.007 63.5021 55.9486 63.5508 55.8949 63.603C55.855 63.0473 55.5029 62.5407 54.9575 62.3405C54.2198 62.0697 53.4078 62.4622 53.1439 63.2173C53.0032 63.6198 53.0467 64.0441 53.2297 64.3936C53.1712 64.3864 53.1116 64.3826 53.0512 64.3824C52.2514 64.3802 51.6111 65.0154 51.6211 65.8012C51.6312 66.587 52.2877 67.2258 53.0876 67.228C53.1307 67.2282 53.1735 67.2264 53.2156 67.2229C53.1983 67.2615 53.1824 67.3012 53.1682 67.342C52.9043 68.097 53.2884 68.9286 54.0261 69.1995C54.7638 69.4703 55.5758 69.0777 55.8397 68.3226C55.8632 68.2556 55.8815 68.1879 55.8949 68.1201C56.1562 68.3559 56.5038 68.5005 56.8836 68.5016C57.6835 68.5038 58.3237 67.8686 58.3137 67.0828C58.3071 66.5694 58.0246 66.1188 57.6065 65.8674Z" fill="white"/>
<g style="mix-blend-mode:multiply">
<circle cx="55.2693" cy="65.877" r="1.0792" transform="rotate(79.3678 55.2693 65.877)" fill="#FED402"/>
</g>
<path d="M66.2355 71.3494C66.2908 71.3176 66.345 71.283 66.3981 71.2454C67.3056 70.6032 67.5241 69.3519 66.8862 68.4505C66.2483 67.5491 64.9955 67.339 64.0881 67.9813C64 68.0436 63.9184 68.1117 63.8434 68.1846C63.7876 67.4081 63.2955 66.7 62.5333 66.4202C61.5023 66.0417 60.3674 66.5904 59.9986 67.6456C59.8019 68.2082 59.8627 68.8012 60.1185 69.2896C60.0367 69.2795 59.9534 69.2742 59.869 69.274C58.7512 69.2709 57.8563 70.1586 57.8704 71.2569C57.8844 72.3551 58.802 73.2479 59.9198 73.2511C59.9802 73.2512 60.0399 73.2488 60.0988 73.2439C60.0745 73.2978 60.0524 73.3533 60.0325 73.4103C59.6637 74.4655 60.2005 75.6278 61.2315 76.0063C62.2626 76.3848 63.3974 75.8361 63.7663 74.7809C63.799 74.6872 63.8246 74.5926 63.8434 74.4978C64.2086 74.8273 64.6943 75.0294 65.2252 75.0309C66.343 75.034 67.2379 74.1463 67.2238 73.0481C67.2147 72.3306 66.8199 71.7007 66.2355 71.3494Z" fill="white"/>
<g style="mix-blend-mode:multiply">
<circle cx="62.9658" cy="71.3632" r="1.50829" transform="rotate(79.3678 62.9658 71.3632)" fill="#FED402"/>
</g>
<defs>
<filter id="filter0_f_1032_902" x="10.1484" y="44.9609" width="62.4336" height="25.6396" filterUnits="userSpaceOnUse" color-interpolation-filters="sRGB">
<feFlood flood-opacity="0" result="BackgroundImageFix"/>
<feBlend mode="normal" in="SourceGraphic" in2="BackgroundImageFix" result="shape"/>
<feGaussianBlur stdDeviation="0.5" result="effect1_foregroundBlur_1032_902"/>
</filter>
<filter id="filter1_f_1032_902" x="48.3848" y="60.4463" width="25.1934" height="22.3848" filterUnits="userSpaceOnUse" color-interpolation-filters="sRGB">
<feFlood flood-opacity="0" result="BackgroundImageFix"/>
<feBlend mode="normal" in="SourceGraphic" in2="BackgroundImageFix" result="shape"/>
<feGaussianBlur stdDeviation="0.5" result="effect1_foregroundBlur_1032_902"/>
</filter>
</defs>
</svg>
