<svg width="49" height="83" viewBox="0 0 49 83" fill="none" xmlns="http://www.w3.org/2000/svg">
<path d="M2.15678 2.1665C1.47309 2.84879 0.930674 3.65921 0.560585 4.55139C0.190497 5.44357 -1.11901e-06 6.39998 -1.28789e-06 7.36587C-1.45677e-06 8.33176 0.190496 9.28817 0.560584 10.1804C0.930672 11.0725 1.47309 11.883 2.15677 12.5652L30.7718 41.1802L2.15676 69.7953C0.777804 71.1742 0.00311004 73.0445 0.00310969 74.9946C0.00310935 76.9448 0.777802 78.815 2.15676 80.194C3.53572 81.573 5.40599 82.3476 7.35614 82.3476C9.30628 82.3476 11.1766 81.573 12.5555 80.194L46.4068 46.3428C47.0905 45.6605 47.6329 44.85 48.003 43.9579C48.373 43.0657 48.5635 42.1093 48.5635 41.1434C48.5635 40.1775 48.373 39.2211 48.003 38.3289C47.6329 37.4367 47.0905 36.6263 46.4068 35.944L12.5555 2.09275C9.75302 -0.709753 5.03303 -0.709752 2.15678 2.1665Z" fill="#CDDAFD"/>
</svg>
