<svg width="49" height="83" viewBox="0 0 49 83" fill="none" xmlns="http://www.w3.org/2000/svg">
<path d="M46.4077 80.1812C47.0914 79.4989 47.6338 78.6884 48.0039 77.7963C48.374 76.9041 48.5645 75.9477 48.5645 74.9818C48.5645 74.0159 48.374 73.0595 48.0039 72.1673C47.6338 71.2751 47.0914 70.4647 46.4077 69.7824L17.7927 41.1674L46.4077 12.5524C47.7866 11.1734 48.5613 9.30318 48.5613 7.35304C48.5613 5.4029 47.7866 3.53262 46.4077 2.15366C45.0287 0.774696 43.1584 1.52588e-05 41.2083 1.52588e-05C39.2582 1.52588e-05 37.3879 0.774696 36.0089 2.15366L2.15768 36.0049C1.47399 36.6872 0.931572 37.4976 0.561485 38.3898C0.191399 39.282 0.000907898 40.2384 0.000907898 41.2043C0.000907898 42.1702 0.191399 43.1266 0.561485 44.0188C0.931572 44.9109 1.47399 45.7214 2.15768 46.4037L36.0089 80.2549C38.8114 83.0574 43.5314 83.0574 46.4077 80.1812Z" fill="#CDDAFD"/>
</svg>
