<svg width="91" height="91" viewBox="0 0 91 91" fill="none" xmlns="http://www.w3.org/2000/svg">
<mask id="mask0_923_353" style="mask-type:alpha" maskUnits="userSpaceOnUse" x="0" y="0" width="91" height="91">
<circle cx="45.1389" cy="45.1389" r="44.6389" fill="#EFEFEF" stroke="black"/>
</mask>
<g mask="url(#mask0_923_353)">
<mask id="path-2-inside-1_923_353" fill="white">
<path d="M148.909 226.042C148.673 224.243 148.659 223.16 148.659 222.361V222.236C148.659 221.778 148.659 221.41 148.61 221.055C148.305 218.507 146.985 217.708 146.263 212.924C144.895 203.889 143.985 197.167 142.708 187.764C142.708 187.722 142.701 187.68 142.694 187.639C142.437 185.722 142.159 183.715 141.86 181.528C140.805 173.736 137.263 163.937 133.527 153.16C133.52 153.118 133.499 153.076 133.485 153.035C133.27 152.417 133.062 151.799 132.847 151.174C132.465 150.062 131.652 141.604 131.34 137.16C130.958 131.611 127.312 80.7013 124.812 73.0207C122.951 67.2985 121.145 64.993 119.423 64.236V64.2221C119.423 64.2221 118.013 63.486 117.166 63.1457C117.062 63.1041 116.958 63.0693 116.847 63.0277L87.0549 49.7638C87.034 49.7152 87.0132 49.6735 86.9924 49.6249C86.0618 47.3749 85.6868 41.118 85.534 36.8402C87.6521 34.8818 89.284 32.3541 90.3188 28.1666C90.4993 27.4166 90.7215 26.5277 90.9299 25.5693C93.2493 26.3888 93.8535 22.8193 94.2771 21.7846C94.7493 20.6527 95.3882 20.5416 96.0132 18.0346C96.4368 16.3679 95.7077 15.2707 96.0063 14.1943C96.2077 13.4721 96.2979 11.4305 95.3813 10.7291C95.2841 10.6527 95.159 10.611 95.0202 10.5763C96.3952 5.35406 97.2702 -3.18066 94.409 -9.71538C93.166 -12.5418 91.6452 -14.8126 90.034 -16.6251C86.2285 -21.264 79.9507 -24.3057 72.8396 -24.3057C65.7285 -24.3057 59.4577 -21.264 55.6452 -16.6251C54.034 -14.8196 52.5132 -12.5418 51.2702 -9.71538C48.409 -3.18066 49.284 5.35406 50.659 10.5763C50.5271 10.611 50.4021 10.6527 50.2979 10.7291C49.3813 11.4305 49.4715 13.4721 49.6729 14.1943C49.9715 15.2707 49.2424 16.3679 49.666 18.0346C50.291 20.5416 50.9229 20.6527 51.4021 21.7846C51.8257 22.8193 52.4368 26.3818 54.7493 25.5693C54.9576 26.5277 55.1729 27.4166 55.3604 28.1666C56.3952 32.361 58.0271 34.8818 60.1452 36.8402C59.9924 41.118 59.6174 47.3749 58.6868 49.6249C58.666 49.6735 58.6452 49.7152 58.6243 49.7638L28.8396 63.0277C28.7354 63.0693 28.6243 63.1041 28.5201 63.1457C27.6729 63.486 26.2632 64.2221 26.2632 64.2221V64.236C24.541 64.993 22.7285 67.2916 20.8743 73.0207C18.3743 80.7013 14.7354 131.611 14.3465 137.16C14.0271 141.611 13.2215 150.069 12.8396 151.174C12.6243 151.799 12.416 152.417 12.2007 153.035C12.1868 153.076 12.166 153.118 12.159 153.16C8.42292 163.937 4.88125 173.736 3.8257 181.528C3.52709 183.708 3.24931 185.722 2.99236 187.639C2.98542 187.68 2.97848 187.722 2.97848 187.764C1.69375 197.167 0.784031 203.889 -0.57708 212.924C-1.2993 217.708 -2.61875 218.507 -2.9243 221.055C-2.97291 221.417 -2.97291 221.778 -2.97291 222.236V222.361C-2.97291 223.16 -2.9868 224.243 -3.22291 226.042C-4.0493 232.208 -4.6743 233.43 -5.2368 235.625C-6.52153 240.611 -7.02847 243.215 -6.90347 246.639C-6.7368 251.18 -5.72291 253.347 -3.82708 255.549C-2.8618 256.68 -1.90347 258.097 -0.396525 259.618C1.74236 261.785 2.04792 261.896 2.92292 260.674C4.06181 259.083 2.60348 256.917 3.13125 252.993C3.83959 247.618 4.99931 246.104 5.37431 239.521C5.42986 238.528 5.99237 243.924 7.88125 245.896C9.38125 247.465 11.909 247.354 11.4993 246.569C7.67986 239.153 11.034 234.403 9.37431 228.729C8.83959 226.896 7.36042 223.979 7.42987 222.604C7.42987 222.528 7.44375 222.444 7.45764 222.361C7.46459 222.319 7.46459 222.278 7.47153 222.236C7.74931 219.097 9.49931 215.201 11.9368 210.333C15.2701 203.68 17.1868 199.583 21.8813 187.757C21.8951 187.715 21.916 187.674 21.9299 187.632C22.2354 186.868 22.5549 186.055 22.8882 185.222C28.791 170.229 29.7701 156.972 30.0063 155.389C30.1035 154.694 30.2493 153.937 30.409 153.153C30.416 153.111 30.4229 153.069 30.4368 153.028C31.9785 145.597 35.9715 134.062 38.5549 124.292C38.9646 122.75 39.9646 118.194 40.3743 116.292C43.3882 127.042 49.9438 147.514 47.9299 153.153C47.0201 157.805 44.7354 162.771 41.9021 169.042C36.8535 180.215 35.7007 186.444 35.7007 186.444C35.5826 186.826 35.4507 187.229 35.3257 187.625C35.3118 187.667 35.2979 187.708 35.284 187.75H35.2771C32.8188 195.326 29.0549 205.34 28.8882 222.111C28.8882 222.194 28.8813 222.271 28.8813 222.354C28.8535 225.924 28.9924 229.778 29.3396 233.986C30.2007 244.417 36.541 266.701 38.916 277.347C44.1799 301.007 47.159 315.194 47.5479 323.528C48.0479 334.305 46.8882 337.667 45.8674 344.194C43.8674 356.868 45.3257 367.826 47.7007 377.875C52.1035 396.444 56.7077 404.701 57.1729 414.444C57.291 416.875 55.8465 417.896 56.6382 420.972C57.0549 422.583 57.7563 424.111 56.6868 427.68C53.1035 439.75 48.4438 442.903 48.9924 447.312C49.6035 452.194 62.541 451.896 67.6035 450.798C71.7702 449.889 71.7215 442.417 70.5132 433.847C70.2702 432.111 70.1452 430.18 70.2493 427.215C70.291 425.75 70.6104 424.042 70.7632 421.979C70.9229 420.076 70.4785 418.069 70.2493 416.479C70.0688 415.278 69.8813 414.312 69.8465 413.805C68.7285 395.153 69.0827 390.68 70.9299 373.146C72.7979 355.423 70.1729 352.243 70.5063 341.41C70.7007 334.986 72.2424 328.424 72.6452 321.465C73.159 312.75 72.4507 304.507 71.7215 298.305C69.7146 281.167 69.7285 278.396 69.0827 264.847C68.3743 250.132 72.0896 242.917 69.9715 230.222C70.4646 230.444 71.666 230.549 72.8604 230.542C74.0549 230.549 75.2493 230.451 75.7424 230.222C73.6243 242.917 77.3396 250.132 76.6313 264.847C75.9785 278.396 75.9993 281.167 73.9924 298.305C73.2702 304.507 72.5479 312.75 73.0688 321.465C73.4854 328.424 75.0202 334.979 75.2077 341.41C75.541 352.243 72.916 355.417 74.784 373.146C76.6452 390.68 76.9854 395.153 75.8674 413.805C75.8327 414.312 75.6521 415.278 75.4785 416.479C75.2354 418.069 74.8049 420.076 74.9507 421.979C75.1174 424.035 75.4229 425.743 75.4785 427.215C75.5688 430.18 75.4438 432.118 75.2007 433.847C73.9993 442.417 73.9438 449.889 78.1104 450.798C83.1799 451.896 96.1104 452.201 96.7215 447.312C97.2702 442.903 92.6104 439.743 89.0271 427.68C87.9715 424.111 88.666 422.583 89.0757 420.972C89.8674 417.896 88.4368 416.882 88.541 414.444C89.0132 404.701 93.6243 396.444 98.0132 377.875C100.388 367.826 101.847 356.868 99.8535 344.194C98.8188 337.667 97.6591 334.305 98.1591 323.528C98.5479 315.194 101.527 301 106.798 277.347C109.166 266.708 115.513 244.424 116.374 233.986C116.715 229.778 116.847 225.917 116.826 222.354C116.826 222.271 116.819 222.194 116.819 222.111C116.652 205.347 112.895 195.326 110.43 187.75C110.416 187.708 110.402 187.667 110.388 187.625C110.263 187.222 110.131 186.826 110.013 186.444C110.013 186.444 109.728 184.889 108.805 181.937C107.888 178.986 106.34 174.639 103.812 169.049C100.978 162.771 98.6868 157.805 97.784 153.16H97.7771C95.7702 147.528 102.326 127.049 105.347 116.299C105.756 118.201 106.756 122.757 107.166 124.299C109.749 134.062 113.742 145.597 115.284 153.035C115.291 153.076 115.298 153.118 115.312 153.16C115.472 153.944 115.61 154.701 115.715 155.396C115.951 156.979 116.93 170.236 122.833 185.229C123.166 186.062 123.485 186.868 123.791 187.639L123.84 187.764C128.534 199.59 130.451 203.687 133.784 210.34C136.228 215.208 137.978 219.097 138.249 222.243C138.256 222.285 138.256 222.326 138.263 222.368C138.27 222.451 138.291 222.535 138.291 222.611C138.367 223.986 136.881 226.903 136.347 228.736C134.687 234.41 138.041 239.16 134.222 246.576C133.812 247.361 136.34 247.465 137.84 245.903C139.729 243.93 140.291 238.535 140.347 239.528C140.722 246.111 141.881 247.625 142.59 253C143.117 256.924 141.659 259.09 142.798 260.68C143.673 261.896 143.972 261.792 146.117 259.625C147.624 258.111 148.583 256.694 149.548 255.555C151.437 253.354 152.458 251.187 152.624 246.646C152.749 243.222 152.242 240.611 150.958 235.632C150.388 233.437 149.763 232.215 148.944 226.049L148.909 226.042Z"/>
</mask>
<path d="M148.909 226.042C148.673 224.243 148.659 223.16 148.659 222.361V222.236C148.659 221.778 148.659 221.41 148.61 221.055C148.305 218.507 146.985 217.708 146.263 212.924C144.895 203.889 143.985 197.167 142.708 187.764C142.708 187.722 142.701 187.68 142.694 187.639C142.437 185.722 142.159 183.715 141.86 181.528C140.805 173.736 137.263 163.937 133.527 153.16C133.52 153.118 133.499 153.076 133.485 153.035C133.27 152.417 133.062 151.799 132.847 151.174C132.465 150.062 131.652 141.604 131.34 137.16C130.958 131.611 127.312 80.7013 124.812 73.0207C122.951 67.2985 121.145 64.993 119.423 64.236V64.2221C119.423 64.2221 118.013 63.486 117.166 63.1457C117.062 63.1041 116.958 63.0693 116.847 63.0277L87.0549 49.7638C87.034 49.7152 87.0132 49.6735 86.9924 49.6249C86.0618 47.3749 85.6868 41.118 85.534 36.8402C87.6521 34.8818 89.284 32.3541 90.3188 28.1666C90.4993 27.4166 90.7215 26.5277 90.9299 25.5693C93.2493 26.3888 93.8535 22.8193 94.2771 21.7846C94.7493 20.6527 95.3882 20.5416 96.0132 18.0346C96.4368 16.3679 95.7077 15.2707 96.0063 14.1943C96.2077 13.4721 96.2979 11.4305 95.3813 10.7291C95.2841 10.6527 95.159 10.611 95.0202 10.5763C96.3952 5.35406 97.2702 -3.18066 94.409 -9.71538C93.166 -12.5418 91.6452 -14.8126 90.034 -16.6251C86.2285 -21.264 79.9507 -24.3057 72.8396 -24.3057C65.7285 -24.3057 59.4577 -21.264 55.6452 -16.6251C54.034 -14.8196 52.5132 -12.5418 51.2702 -9.71538C48.409 -3.18066 49.284 5.35406 50.659 10.5763C50.5271 10.611 50.4021 10.6527 50.2979 10.7291C49.3813 11.4305 49.4715 13.4721 49.6729 14.1943C49.9715 15.2707 49.2424 16.3679 49.666 18.0346C50.291 20.5416 50.9229 20.6527 51.4021 21.7846C51.8257 22.8193 52.4368 26.3818 54.7493 25.5693C54.9576 26.5277 55.1729 27.4166 55.3604 28.1666C56.3952 32.361 58.0271 34.8818 60.1452 36.8402C59.9924 41.118 59.6174 47.3749 58.6868 49.6249C58.666 49.6735 58.6452 49.7152 58.6243 49.7638L28.8396 63.0277C28.7354 63.0693 28.6243 63.1041 28.5201 63.1457C27.6729 63.486 26.2632 64.2221 26.2632 64.2221V64.236C24.541 64.993 22.7285 67.2916 20.8743 73.0207C18.3743 80.7013 14.7354 131.611 14.3465 137.16C14.0271 141.611 13.2215 150.069 12.8396 151.174C12.6243 151.799 12.416 152.417 12.2007 153.035C12.1868 153.076 12.166 153.118 12.159 153.16C8.42292 163.937 4.88125 173.736 3.8257 181.528C3.52709 183.708 3.24931 185.722 2.99236 187.639C2.98542 187.68 2.97848 187.722 2.97848 187.764C1.69375 197.167 0.784031 203.889 -0.57708 212.924C-1.2993 217.708 -2.61875 218.507 -2.9243 221.055C-2.97291 221.417 -2.97291 221.778 -2.97291 222.236V222.361C-2.97291 223.16 -2.9868 224.243 -3.22291 226.042C-4.0493 232.208 -4.6743 233.43 -5.2368 235.625C-6.52153 240.611 -7.02847 243.215 -6.90347 246.639C-6.7368 251.18 -5.72291 253.347 -3.82708 255.549C-2.8618 256.68 -1.90347 258.097 -0.396525 259.618C1.74236 261.785 2.04792 261.896 2.92292 260.674C4.06181 259.083 2.60348 256.917 3.13125 252.993C3.83959 247.618 4.99931 246.104 5.37431 239.521C5.42986 238.528 5.99237 243.924 7.88125 245.896C9.38125 247.465 11.909 247.354 11.4993 246.569C7.67986 239.153 11.034 234.403 9.37431 228.729C8.83959 226.896 7.36042 223.979 7.42987 222.604C7.42987 222.528 7.44375 222.444 7.45764 222.361C7.46459 222.319 7.46459 222.278 7.47153 222.236C7.74931 219.097 9.49931 215.201 11.9368 210.333C15.2701 203.68 17.1868 199.583 21.8813 187.757C21.8951 187.715 21.916 187.674 21.9299 187.632C22.2354 186.868 22.5549 186.055 22.8882 185.222C28.791 170.229 29.7701 156.972 30.0063 155.389C30.1035 154.694 30.2493 153.937 30.409 153.153C30.416 153.111 30.4229 153.069 30.4368 153.028C31.9785 145.597 35.9715 134.062 38.5549 124.292C38.9646 122.75 39.9646 118.194 40.3743 116.292C43.3882 127.042 49.9438 147.514 47.9299 153.153C47.0201 157.805 44.7354 162.771 41.9021 169.042C36.8535 180.215 35.7007 186.444 35.7007 186.444C35.5826 186.826 35.4507 187.229 35.3257 187.625C35.3118 187.667 35.2979 187.708 35.284 187.75H35.2771C32.8188 195.326 29.0549 205.34 28.8882 222.111C28.8882 222.194 28.8813 222.271 28.8813 222.354C28.8535 225.924 28.9924 229.778 29.3396 233.986C30.2007 244.417 36.541 266.701 38.916 277.347C44.1799 301.007 47.159 315.194 47.5479 323.528C48.0479 334.305 46.8882 337.667 45.8674 344.194C43.8674 356.868 45.3257 367.826 47.7007 377.875C52.1035 396.444 56.7077 404.701 57.1729 414.444C57.291 416.875 55.8465 417.896 56.6382 420.972C57.0549 422.583 57.7563 424.111 56.6868 427.68C53.1035 439.75 48.4438 442.903 48.9924 447.312C49.6035 452.194 62.541 451.896 67.6035 450.798C71.7702 449.889 71.7215 442.417 70.5132 433.847C70.2702 432.111 70.1452 430.18 70.2493 427.215C70.291 425.75 70.6104 424.042 70.7632 421.979C70.9229 420.076 70.4785 418.069 70.2493 416.479C70.0688 415.278 69.8813 414.312 69.8465 413.805C68.7285 395.153 69.0827 390.68 70.9299 373.146C72.7979 355.423 70.1729 352.243 70.5063 341.41C70.7007 334.986 72.2424 328.424 72.6452 321.465C73.159 312.75 72.4507 304.507 71.7215 298.305C69.7146 281.167 69.7285 278.396 69.0827 264.847C68.3743 250.132 72.0896 242.917 69.9715 230.222C70.4646 230.444 71.666 230.549 72.8604 230.542C74.0549 230.549 75.2493 230.451 75.7424 230.222C73.6243 242.917 77.3396 250.132 76.6313 264.847C75.9785 278.396 75.9993 281.167 73.9924 298.305C73.2702 304.507 72.5479 312.75 73.0688 321.465C73.4854 328.424 75.0202 334.979 75.2077 341.41C75.541 352.243 72.916 355.417 74.784 373.146C76.6452 390.68 76.9854 395.153 75.8674 413.805C75.8327 414.312 75.6521 415.278 75.4785 416.479C75.2354 418.069 74.8049 420.076 74.9507 421.979C75.1174 424.035 75.4229 425.743 75.4785 427.215C75.5688 430.18 75.4438 432.118 75.2007 433.847C73.9993 442.417 73.9438 449.889 78.1104 450.798C83.1799 451.896 96.1104 452.201 96.7215 447.312C97.2702 442.903 92.6104 439.743 89.0271 427.68C87.9715 424.111 88.666 422.583 89.0757 420.972C89.8674 417.896 88.4368 416.882 88.541 414.444C89.0132 404.701 93.6243 396.444 98.0132 377.875C100.388 367.826 101.847 356.868 99.8535 344.194C98.8188 337.667 97.6591 334.305 98.1591 323.528C98.5479 315.194 101.527 301 106.798 277.347C109.166 266.708 115.513 244.424 116.374 233.986C116.715 229.778 116.847 225.917 116.826 222.354C116.826 222.271 116.819 222.194 116.819 222.111C116.652 205.347 112.895 195.326 110.43 187.75C110.416 187.708 110.402 187.667 110.388 187.625C110.263 187.222 110.131 186.826 110.013 186.444C110.013 186.444 109.728 184.889 108.805 181.937C107.888 178.986 106.34 174.639 103.812 169.049C100.978 162.771 98.6868 157.805 97.784 153.16H97.7771C95.7702 147.528 102.326 127.049 105.347 116.299C105.756 118.201 106.756 122.757 107.166 124.299C109.749 134.062 113.742 145.597 115.284 153.035C115.291 153.076 115.298 153.118 115.312 153.16C115.472 153.944 115.61 154.701 115.715 155.396C115.951 156.979 116.93 170.236 122.833 185.229C123.166 186.062 123.485 186.868 123.791 187.639L123.84 187.764C128.534 199.59 130.451 203.687 133.784 210.34C136.228 215.208 137.978 219.097 138.249 222.243C138.256 222.285 138.256 222.326 138.263 222.368C138.27 222.451 138.291 222.535 138.291 222.611C138.367 223.986 136.881 226.903 136.347 228.736C134.687 234.41 138.041 239.16 134.222 246.576C133.812 247.361 136.34 247.465 137.84 245.903C139.729 243.93 140.291 238.535 140.347 239.528C140.722 246.111 141.881 247.625 142.59 253C143.117 256.924 141.659 259.09 142.798 260.68C143.673 261.896 143.972 261.792 146.117 259.625C147.624 258.111 148.583 256.694 149.548 255.555C151.437 253.354 152.458 251.187 152.624 246.646C152.749 243.222 152.242 240.611 150.958 235.632C150.388 233.437 149.763 232.215 148.944 226.049L148.909 226.042Z" stroke="black" stroke-width="2" mask="url(#path-2-inside-1_923_353)"/>
</g>
</svg>
