<svg width="344" height="686" viewBox="0 0 344 686" fill="none" xmlns="http://www.w3.org/2000/svg">
<mask id="path-1-inside-1_1026_49" fill="white">
<path d="M278.747 390.16C278.507 396.7 277.046 399.82 274.316 402.99C272.926 404.62 271.546 406.66 269.376 408.85C266.296 411.97 265.857 412.13 264.597 410.37C262.957 408.08 265.057 404.96 264.297 399.31C263.277 391.57 261.606 389.39 261.066 379.91C260.986 378.48 260.176 386.25 257.456 389.09C255.296 391.35 251.657 391.19 252.247 390.06C257.747 379.38 252.917 372.54 255.307 364.37C256.077 361.73 258.207 357.53 258.107 355.55C258.107 355.44 258.086 355.32 258.066 355.2C258.056 355.14 258.057 355.08 258.047 355.02C257.647 350.5 255.127 344.89 251.617 337.88C246.817 328.3 244.056 322.4 237.296 305.37L237.227 305.19C236.787 304.09 236.327 302.92 235.847 301.72C227.347 280.13 225.937 261.04 225.597 258.76C225.457 257.76 225.246 256.67 225.016 255.54C225.007 255.48 224.997 255.42 224.977 255.36C222.757 244.66 217.007 228.05 213.287 213.98C212.697 211.76 211.257 205.2 210.667 202.46C206.327 217.94 196.876 247.42 199.766 255.54H199.777C201.077 262.24 204.376 269.39 208.456 278.42C212.096 286.47 214.326 292.74 215.646 296.98C216.977 301.23 217.387 303.47 217.387 303.47C217.557 304.02 217.747 304.6 217.926 305.17C217.947 305.23 217.966 305.29 217.986 305.35C221.536 316.26 226.947 330.68 227.187 354.83C227.187 354.95 227.197 355.06 227.197 355.18C227.237 360.32 227.036 365.87 226.546 371.93C225.306 386.95 216.167 419.04 212.757 434.37C205.157 468.44 200.877 488.87 200.317 500.87C199.597 516.39 201.267 521.23 202.757 530.63C205.627 548.88 203.527 564.66 200.107 579.13C193.787 605.87 187.146 617.76 186.467 631.79C186.307 635.29 188.376 636.76 187.236 641.19C186.646 643.51 185.637 645.71 187.167 650.85C192.327 668.23 199.036 672.77 198.247 679.12C197.367 686.15 178.747 685.72 171.447 684.14C165.447 682.83 165.527 672.07 167.257 659.73C167.607 657.23 167.787 654.45 167.657 650.18C167.587 648.07 167.136 645.61 166.896 642.64C166.676 639.9 167.307 637.01 167.657 634.72C167.907 632.99 168.177 631.6 168.217 630.87C169.827 604.01 169.337 597.57 166.657 572.32C163.967 546.8 167.746 542.22 167.266 526.62C166.986 517.37 164.787 507.92 164.187 497.9C163.447 485.35 164.476 473.48 165.516 464.55C168.406 439.87 168.387 435.88 169.317 416.37C170.337 395.18 164.987 384.79 168.037 366.51C167.327 366.83 165.597 366.98 163.887 366.97C162.157 366.98 160.427 366.84 159.727 366.51C162.777 384.79 157.427 395.18 158.447 416.37C159.387 435.88 159.357 439.87 162.247 464.55C163.307 473.48 164.326 485.35 163.576 497.9C162.986 507.92 160.767 517.36 160.497 526.62C160.017 542.22 163.797 546.79 161.107 572.32C158.447 597.57 157.936 604.01 159.546 630.87C159.596 631.6 159.857 632.99 160.127 634.72C160.467 637.01 161.097 639.9 160.867 642.64C160.636 645.6 160.187 648.06 160.127 650.18C159.987 654.45 160.167 657.24 160.507 659.73C162.247 672.07 162.317 682.83 156.317 684.14C149.037 685.72 130.396 686.16 129.516 679.12C128.726 672.77 135.437 668.22 140.597 650.85C142.137 645.71 141.127 643.51 140.527 641.19C139.387 636.76 141.466 635.3 141.296 631.79C140.626 617.76 133.987 605.87 127.657 579.13C124.237 564.66 122.136 548.88 125.016 530.63C126.496 521.23 128.157 516.39 127.437 500.87C126.877 488.87 122.587 468.43 115.007 434.37C111.587 419.05 102.457 386.96 101.217 371.93C100.717 365.87 100.517 360.31 100.557 355.18C100.557 355.06 100.567 354.95 100.567 354.83C100.807 330.69 106.226 316.26 109.766 305.35H109.777C109.797 305.29 109.817 305.23 109.837 305.17C110.017 304.59 110.207 304.02 110.377 303.47C110.377 303.47 112.037 294.51 119.307 278.41C123.387 269.37 126.676 262.22 127.986 255.53C130.876 247.42 121.447 217.93 117.107 202.45C116.517 205.19 115.076 211.75 114.486 213.97C110.766 228.03 105.016 244.64 102.796 255.35C102.786 255.41 102.777 255.47 102.757 255.53C102.527 256.66 102.326 257.75 102.176 258.75C101.836 261.03 100.426 280.12 91.9265 301.71C91.4465 302.91 90.9865 304.07 90.5465 305.18C90.5265 305.24 90.4965 305.3 90.4765 305.36C83.7165 322.39 80.9565 328.29 76.1565 337.87C72.6365 344.88 70.1165 350.48 69.7265 355.01C69.7165 355.07 69.7165 355.13 69.7065 355.19C69.6965 355.31 69.6665 355.43 69.6665 355.54C69.5565 357.52 71.6965 361.72 72.4665 364.36C74.8565 372.53 70.0265 379.37 75.5265 390.05C76.1165 391.18 72.4765 391.33 70.3165 389.08C67.5965 386.24 66.7865 378.47 66.7065 379.9C66.1665 389.38 64.4965 391.56 63.4765 399.3C62.7165 404.95 64.8165 408.07 63.1765 410.36C61.9165 412.11 61.4865 411.96 58.3965 408.84C56.2265 406.66 54.8465 404.62 53.4565 402.98C50.7365 399.81 49.2665 396.69 49.0265 390.15C48.8465 385.22 49.5765 381.46 51.4265 374.29C52.2465 371.13 53.1465 369.37 54.3265 360.49C54.6665 357.9 54.6865 356.34 54.6865 355.19V355.01C54.6865 354.35 54.6865 353.82 54.7565 353.31C55.1965 349.64 57.0965 348.49 58.1365 341.6C60.1065 328.59 61.4165 318.91 63.2565 305.37C63.2565 305.31 63.2665 305.25 63.2765 305.19C63.6465 302.43 64.0465 299.54 64.4765 296.39C65.9965 285.17 71.0965 271.06 76.4765 255.54C76.4865 255.48 76.5165 255.42 76.5365 255.36C76.8465 254.47 77.1465 253.58 77.4565 252.68C78.0065 251.08 79.1765 238.9 79.6265 232.5C80.1765 224.51 85.4265 151.2 89.0265 140.14C91.7065 131.9 94.3065 128.58 96.7865 127.49V127.47C96.7865 127.47 98.8165 126.41 100.037 125.92C103.447 124.56 107.657 123.81 112.137 123.03C116.527 122.23 124.317 121.34 128.637 119.67C135.037 117.21 140.317 114.14 143.477 106.46C144.817 103.22 145.356 94.21 145.576 88.05C142.526 85.23 140.177 81.59 138.687 75.56C138.427 74.48 138.107 73.2 137.807 71.82C134.467 73 133.596 67.86 132.986 66.37C132.306 64.74 131.386 64.58 130.486 60.97C129.876 58.57 130.927 56.99 130.497 55.44C130.207 54.4 130.076 51.46 131.396 50.45C131.536 50.34 131.717 50.28 131.917 50.23C129.937 42.71 128.676 30.42 132.796 21.01C134.586 16.94 136.777 13.67 139.097 11.06C144.577 4.38 153.617 0 163.857 0C174.097 0 183.126 4.38 188.617 11.06C190.937 13.66 193.127 16.94 194.917 21.01C199.037 30.42 197.776 42.71 195.796 50.23C195.986 50.28 196.167 50.34 196.317 50.45C197.637 51.46 197.507 54.4 197.217 55.44C196.787 56.99 197.837 58.57 197.227 60.97C196.327 64.58 195.417 64.74 194.727 66.37C194.117 67.86 193.237 72.99 189.907 71.82C189.607 73.2 189.297 74.48 189.027 75.56C187.536 81.6 185.187 85.23 182.137 88.05C182.357 94.21 182.896 103.22 184.236 106.46C187.406 114.14 192.686 117.21 199.076 119.67C203.396 121.34 211.186 122.23 215.576 123.03C220.056 123.81 224.266 124.57 227.676 125.92C228.896 126.41 230.926 127.47 230.926 127.47V127.49C233.406 128.58 236.016 131.89 238.686 140.14C242.286 151.2 247.527 224.51 248.087 232.5C248.547 238.91 249.706 251.09 250.256 252.68C250.566 253.58 250.867 254.47 251.177 255.36C251.197 255.42 251.227 255.48 251.237 255.54C256.617 271.06 261.717 285.17 263.237 296.39C263.667 299.53 264.066 302.43 264.436 305.19C264.446 305.25 264.456 305.31 264.456 305.37C266.307 318.91 267.616 328.59 269.576 341.6C270.616 348.49 272.516 349.64 272.956 353.31C273.027 353.83 273.027 354.35 273.027 355.01V355.19C273.027 356.34 273.046 357.9 273.386 360.49C274.576 369.37 275.477 371.13 276.287 374.29C278.137 381.47 278.866 385.22 278.686 390.15L278.747 390.16Z"/>
</mask>
<path d="M278.747 390.16C278.507 396.7 277.046 399.82 274.316 402.99C272.926 404.62 271.546 406.66 269.376 408.85C266.296 411.97 265.857 412.13 264.597 410.37C262.957 408.08 265.057 404.96 264.297 399.31C263.277 391.57 261.606 389.39 261.066 379.91C260.986 378.48 260.176 386.25 257.456 389.09C255.296 391.35 251.657 391.19 252.247 390.06C257.747 379.38 252.917 372.54 255.307 364.37C256.077 361.73 258.207 357.53 258.107 355.55C258.107 355.44 258.086 355.32 258.066 355.2C258.056 355.14 258.057 355.08 258.047 355.02C257.647 350.5 255.127 344.89 251.617 337.88C246.817 328.3 244.056 322.4 237.296 305.37L237.227 305.19C236.787 304.09 236.327 302.92 235.847 301.72C227.347 280.13 225.937 261.04 225.597 258.76C225.457 257.76 225.246 256.67 225.016 255.54C225.007 255.48 224.997 255.42 224.977 255.36C222.757 244.66 217.007 228.05 213.287 213.98C212.697 211.76 211.257 205.2 210.667 202.46C206.327 217.94 196.876 247.42 199.766 255.54H199.777C201.077 262.24 204.376 269.39 208.456 278.42C212.096 286.47 214.326 292.74 215.646 296.98C216.977 301.23 217.387 303.47 217.387 303.47C217.557 304.02 217.747 304.6 217.926 305.17C217.947 305.23 217.966 305.29 217.986 305.35C221.536 316.26 226.947 330.68 227.187 354.83C227.187 354.95 227.197 355.06 227.197 355.18C227.237 360.32 227.036 365.87 226.546 371.93C225.306 386.95 216.167 419.04 212.757 434.37C205.157 468.44 200.877 488.87 200.317 500.87C199.597 516.39 201.267 521.23 202.757 530.63C205.627 548.88 203.527 564.66 200.107 579.13C193.787 605.87 187.146 617.76 186.467 631.79C186.307 635.29 188.376 636.76 187.236 641.19C186.646 643.51 185.637 645.71 187.167 650.85C192.327 668.23 199.036 672.77 198.247 679.12C197.367 686.15 178.747 685.72 171.447 684.14C165.447 682.83 165.527 672.07 167.257 659.73C167.607 657.23 167.787 654.45 167.657 650.18C167.587 648.07 167.136 645.61 166.896 642.64C166.676 639.9 167.307 637.01 167.657 634.72C167.907 632.99 168.177 631.6 168.217 630.87C169.827 604.01 169.337 597.57 166.657 572.32C163.967 546.8 167.746 542.22 167.266 526.62C166.986 517.37 164.787 507.92 164.187 497.9C163.447 485.35 164.476 473.48 165.516 464.55C168.406 439.87 168.387 435.88 169.317 416.37C170.337 395.18 164.987 384.79 168.037 366.51C167.327 366.83 165.597 366.98 163.887 366.97C162.157 366.98 160.427 366.84 159.727 366.51C162.777 384.79 157.427 395.18 158.447 416.37C159.387 435.88 159.357 439.87 162.247 464.55C163.307 473.48 164.326 485.35 163.576 497.9C162.986 507.92 160.767 517.36 160.497 526.62C160.017 542.22 163.797 546.79 161.107 572.32C158.447 597.57 157.936 604.01 159.546 630.87C159.596 631.6 159.857 632.99 160.127 634.72C160.467 637.01 161.097 639.9 160.867 642.64C160.636 645.6 160.187 648.06 160.127 650.18C159.987 654.45 160.167 657.24 160.507 659.73C162.247 672.07 162.317 682.83 156.317 684.14C149.037 685.72 130.396 686.16 129.516 679.12C128.726 672.77 135.437 668.22 140.597 650.85C142.137 645.71 141.127 643.51 140.527 641.19C139.387 636.76 141.466 635.3 141.296 631.79C140.626 617.76 133.987 605.87 127.657 579.13C124.237 564.66 122.136 548.88 125.016 530.63C126.496 521.23 128.157 516.39 127.437 500.87C126.877 488.87 122.587 468.43 115.007 434.37C111.587 419.05 102.457 386.96 101.217 371.93C100.717 365.87 100.517 360.31 100.557 355.18C100.557 355.06 100.567 354.95 100.567 354.83C100.807 330.69 106.226 316.26 109.766 305.35H109.777C109.797 305.29 109.817 305.23 109.837 305.17C110.017 304.59 110.207 304.02 110.377 303.47C110.377 303.47 112.037 294.51 119.307 278.41C123.387 269.37 126.676 262.22 127.986 255.53C130.876 247.42 121.447 217.93 117.107 202.45C116.517 205.19 115.076 211.75 114.486 213.97C110.766 228.03 105.016 244.64 102.796 255.35C102.786 255.41 102.777 255.47 102.757 255.53C102.527 256.66 102.326 257.75 102.176 258.75C101.836 261.03 100.426 280.12 91.9265 301.71C91.4465 302.91 90.9865 304.07 90.5465 305.18C90.5265 305.24 90.4965 305.3 90.4765 305.36C83.7165 322.39 80.9565 328.29 76.1565 337.87C72.6365 344.88 70.1165 350.48 69.7265 355.01C69.7165 355.07 69.7165 355.13 69.7065 355.19C69.6965 355.31 69.6665 355.43 69.6665 355.54C69.5565 357.52 71.6965 361.72 72.4665 364.36C74.8565 372.53 70.0265 379.37 75.5265 390.05C76.1165 391.18 72.4765 391.33 70.3165 389.08C67.5965 386.24 66.7865 378.47 66.7065 379.9C66.1665 389.38 64.4965 391.56 63.4765 399.3C62.7165 404.95 64.8165 408.07 63.1765 410.36C61.9165 412.11 61.4865 411.96 58.3965 408.84C56.2265 406.66 54.8465 404.62 53.4565 402.98C50.7365 399.81 49.2665 396.69 49.0265 390.15C48.8465 385.22 49.5765 381.46 51.4265 374.29C52.2465 371.13 53.1465 369.37 54.3265 360.49C54.6665 357.9 54.6865 356.34 54.6865 355.19V355.01C54.6865 354.35 54.6865 353.82 54.7565 353.31C55.1965 349.64 57.0965 348.49 58.1365 341.6C60.1065 328.59 61.4165 318.91 63.2565 305.37C63.2565 305.31 63.2665 305.25 63.2765 305.19C63.6465 302.43 64.0465 299.54 64.4765 296.39C65.9965 285.17 71.0965 271.06 76.4765 255.54C76.4865 255.48 76.5165 255.42 76.5365 255.36C76.8465 254.47 77.1465 253.58 77.4565 252.68C78.0065 251.08 79.1765 238.9 79.6265 232.5C80.1765 224.51 85.4265 151.2 89.0265 140.14C91.7065 131.9 94.3065 128.58 96.7865 127.49V127.47C96.7865 127.47 98.8165 126.41 100.037 125.92C103.447 124.56 107.657 123.81 112.137 123.03C116.527 122.23 124.317 121.34 128.637 119.67C135.037 117.21 140.317 114.14 143.477 106.46C144.817 103.22 145.356 94.21 145.576 88.05C142.526 85.23 140.177 81.59 138.687 75.56C138.427 74.48 138.107 73.2 137.807 71.82C134.467 73 133.596 67.86 132.986 66.37C132.306 64.74 131.386 64.58 130.486 60.97C129.876 58.57 130.927 56.99 130.497 55.44C130.207 54.4 130.076 51.46 131.396 50.45C131.536 50.34 131.717 50.28 131.917 50.23C129.937 42.71 128.676 30.42 132.796 21.01C134.586 16.94 136.777 13.67 139.097 11.06C144.577 4.38 153.617 0 163.857 0C174.097 0 183.126 4.38 188.617 11.06C190.937 13.66 193.127 16.94 194.917 21.01C199.037 30.42 197.776 42.71 195.796 50.23C195.986 50.28 196.167 50.34 196.317 50.45C197.637 51.46 197.507 54.4 197.217 55.44C196.787 56.99 197.837 58.57 197.227 60.97C196.327 64.58 195.417 64.74 194.727 66.37C194.117 67.86 193.237 72.99 189.907 71.82C189.607 73.2 189.297 74.48 189.027 75.56C187.536 81.6 185.187 85.23 182.137 88.05C182.357 94.21 182.896 103.22 184.236 106.46C187.406 114.14 192.686 117.21 199.076 119.67C203.396 121.34 211.186 122.23 215.576 123.03C220.056 123.81 224.266 124.57 227.676 125.92C228.896 126.41 230.926 127.47 230.926 127.47V127.49C233.406 128.58 236.016 131.89 238.686 140.14C242.286 151.2 247.527 224.51 248.087 232.5C248.547 238.91 249.706 251.09 250.256 252.68C250.566 253.58 250.867 254.47 251.177 255.36C251.197 255.42 251.227 255.48 251.237 255.54C256.617 271.06 261.717 285.17 263.237 296.39C263.667 299.53 264.066 302.43 264.436 305.19C264.446 305.25 264.456 305.31 264.456 305.37C266.307 318.91 267.616 328.59 269.576 341.6C270.616 348.49 272.516 349.64 272.956 353.31C273.027 353.83 273.027 354.35 273.027 355.01V355.19C273.027 356.34 273.046 357.9 273.386 360.49C274.576 369.37 275.477 371.13 276.287 374.29C278.137 381.47 278.866 385.22 278.686 390.15L278.747 390.16Z" fill="#EFEFEF" stroke="black" stroke-width="2" mask="url(#path-1-inside-1_1026_49)"/>
<path d="M22.848 284.152C19.904 284.152 17.248 283.608 14.88 282.52C12.512 281.368 10.624 279.544 9.216 277.048C7.872 274.552 7.2 271.32 7.2 267.352V211.96H15.84V266.488C15.84 269.944 16.544 272.504 17.952 274.168C19.424 275.832 21.44 276.664 24 276.664C25.216 276.664 26.4 276.536 27.552 276.28C28.768 275.96 29.792 275.608 30.624 275.224L32.736 282.232C31.584 282.744 30.144 283.192 28.416 283.576C26.752 283.96 24.896 284.152 22.848 284.152ZM60.4853 284.152C55.7493 284.152 51.4933 283.064 47.7173 280.888C43.9413 278.648 40.9653 275.576 38.7893 271.672C36.6773 267.704 35.6213 263.16 35.6213 258.04C35.6213 252.664 36.7093 248.024 38.8853 244.12C41.0613 240.216 44.0373 237.208 47.8133 235.096C51.5893 232.984 55.8133 231.928 60.4853 231.928C65.1573 231.928 69.3493 232.984 73.0613 235.096C76.8373 237.208 79.8133 240.216 81.9893 244.12C84.2293 247.96 85.3493 252.536 85.3493 257.848C85.3493 263.16 84.2613 267.8 82.0853 271.768C79.9093 275.672 76.9333 278.712 73.1573 280.888C69.4453 283.064 65.2213 284.152 60.4853 284.152ZM60.4853 276.472C65.5413 276.472 69.4773 274.776 72.2933 271.384C75.1093 267.928 76.5173 263.48 76.5173 258.04C76.5173 254.712 75.8133 251.672 74.4053 248.92C72.9973 246.104 71.0773 243.864 68.6453 242.2C66.2773 240.472 63.5573 239.608 60.4853 239.608C55.4293 239.608 51.4933 241.272 48.6773 244.6C45.8613 247.928 44.4532 252.344 44.4532 257.848C44.4532 261.176 45.1573 264.28 46.5653 267.16C47.9733 269.976 49.8613 272.248 52.2293 273.976C54.6613 275.64 57.4133 276.472 60.4853 276.472ZM115.94 284.152C111.78 284.152 108.004 283.096 104.612 280.984C101.22 278.872 98.5003 275.896 96.4523 272.056C94.4683 268.152 93.4763 263.576 93.4763 258.328C93.4763 253.336 94.4683 248.856 96.4523 244.888C98.5003 240.92 101.284 237.784 104.804 235.48C108.388 233.112 112.484 231.928 117.092 231.928C119.972 231.928 122.564 232.44 124.868 233.464C127.236 234.424 129.284 235.64 131.012 237.112V233.08H138.884V270.904C138.884 273.336 139.46 274.936 140.612 275.704C141.828 276.408 143.14 276.76 144.548 276.76L142.724 283.48C136.58 283.48 132.868 280.984 131.588 275.992C130.116 278.04 128.1 279.928 125.54 281.656C123.044 283.32 119.844 284.152 115.94 284.152ZM117.86 276.472C120.292 276.472 122.596 275.896 124.772 274.744C126.948 273.528 128.772 272.024 130.244 270.232V243.448C128.516 242.232 126.596 241.272 124.484 240.568C122.436 239.8 120.26 239.416 117.956 239.416C114.884 239.416 112.164 240.216 109.796 241.816C107.492 243.352 105.668 245.528 104.324 248.344C102.98 251.096 102.308 254.328 102.308 258.04C102.308 261.624 102.98 264.824 104.324 267.64C105.668 270.392 107.524 272.568 109.892 274.168C112.26 275.704 114.916 276.472 117.86 276.472ZM174.061 284.152C169.965 284.152 166.221 283.096 162.829 280.984C159.437 278.872 156.749 275.896 154.765 272.056C152.781 268.152 151.789 263.576 151.789 258.328C151.789 253.272 152.781 248.76 154.765 244.792C156.813 240.824 159.501 237.688 162.829 235.384C166.221 233.08 169.933 231.928 173.965 231.928C177.293 231.928 180.141 232.6 182.509 233.944C184.941 235.288 186.829 236.664 188.173 238.072V211.96H196.813V270.904C196.813 273.336 197.389 274.936 198.541 275.704C199.757 276.408 201.069 276.76 202.477 276.76L200.653 283.48C194.573 283.48 190.861 281.048 189.517 276.184C188.109 278.168 186.125 279.992 183.565 281.656C181.069 283.32 177.901 284.152 174.061 284.152ZM175.981 276.472C178.349 276.472 180.589 275.928 182.701 274.84C184.877 273.688 186.701 272.216 188.173 270.424V245.656C186.957 244.12 185.261 242.712 183.085 241.432C180.909 240.088 178.509 239.416 175.885 239.416C172.813 239.416 170.125 240.248 167.821 241.912C165.517 243.576 163.725 245.816 162.445 248.632C161.229 251.384 160.621 254.52 160.621 258.04C160.621 261.56 161.293 264.728 162.637 267.544C163.981 270.296 165.805 272.472 168.109 274.072C170.477 275.672 173.101 276.472 175.981 276.472ZM214.024 283V233.08H222.664V283H214.024ZM218.344 224.536C216.68 224.536 215.24 223.928 214.024 222.712C212.872 221.496 212.296 220.088 212.296 218.488C212.296 216.632 212.84 215.16 213.928 214.072C215.016 212.984 216.488 212.44 218.344 212.44C220.008 212.44 221.416 213.048 222.568 214.264C223.784 215.416 224.392 216.824 224.392 218.488C224.392 220.28 223.848 221.752 222.76 222.904C221.672 223.992 220.2 224.536 218.344 224.536ZM238.024 283V233.08H246.376V241.432C248.168 238.744 250.44 236.504 253.192 234.712C256.008 232.856 259.336 231.928 263.176 231.928C268.808 231.928 273 233.624 275.752 237.016C278.568 240.408 279.976 244.888 279.976 250.456V283H271.336V251.416C271.336 247.832 270.472 244.952 268.744 242.776C267.08 240.6 264.744 239.512 261.736 239.512C258.792 239.512 256.008 240.568 253.384 242.68C250.76 244.728 248.52 247.16 246.664 249.976V283H238.024ZM313.172 305.272C310.228 305.272 307.348 304.92 304.532 304.216C301.78 303.512 299.316 302.456 297.14 301.048L300.308 293.56C301.844 294.776 303.636 295.768 305.684 296.536C307.732 297.368 310.228 297.784 313.172 297.784C317.716 297.784 321.268 296.568 323.828 294.136C326.452 291.768 327.764 287.96 327.764 282.712V276.568C326.484 278.104 324.628 279.576 322.196 280.984C319.828 282.328 316.98 283 313.652 283C309.876 283 306.292 282.04 302.9 280.12C299.508 278.136 296.756 275.256 294.644 271.48C292.532 267.704 291.476 263.16 291.476 257.848C291.476 252.856 292.5 248.408 294.548 244.504C296.66 240.6 299.476 237.528 302.996 235.288C306.516 233.048 310.388 231.928 314.612 231.928C317.428 231.928 319.988 232.408 322.292 233.368C324.596 234.328 326.58 235.512 328.244 236.92V233.08H336.116V281.848C336.116 287.352 335.156 291.832 333.236 295.288C331.316 298.744 328.628 301.272 325.172 302.872C321.78 304.472 317.78 305.272 313.172 305.272ZM315.572 275.32C318.132 275.32 320.436 274.744 322.484 273.592C324.532 272.44 326.196 271.096 327.476 269.56V243.448C326.068 242.424 324.372 241.496 322.388 240.664C320.404 239.832 318.1 239.416 315.476 239.416C312.852 239.416 310.388 240.12 308.084 241.528C305.78 242.936 303.892 244.984 302.42 247.672C301.012 250.296 300.308 253.528 300.308 257.368C300.308 261.016 301.012 264.184 302.42 266.872C303.892 269.56 305.78 271.64 308.084 273.112C310.388 274.584 312.884 275.32 315.572 275.32Z" fill="black" fill-opacity="0.2"/>
</svg>
