<svg width="264" height="77" viewBox="0 0 264 77" fill="none" xmlns="http://www.w3.org/2000/svg">
<path d="M169.506 68.9132C170.056 67.8051 170.854 66.2001 172.159 64.7309C173.219 63.5376 174.034 62.041 174.049 60.4475C174.063 58.8541 173.115 57.1956 171.586 56.7189C169.897 56.193 168.138 57.1609 166.636 58.0927C164.923 59.1531 163.211 60.2149 161.497 61.2753C160.681 61.7809 159.85 62.2996 159.236 63.0363C158.623 63.7731 158.254 64.7786 158.514 65.7003C158.806 66.7303 159.775 67.3992 160.676 67.9828C161.844 68.7369 161.806 68.6691 162.974 69.4246C164.024 70.1036 165.732 70.7898 166.981 70.6843C168.228 70.5789 169.311 69.6933 169.505 68.9161L169.506 68.9132Z" fill="#F3EFA3"/>
<path d="M216.825 58.4551C217.258 60.1627 218.566 61.931 220.216 62.1087C221.866 62.2864 223.505 61.4976 224.699 60.352C225.893 59.2064 226.706 57.7314 227.447 56.2549C227.994 55.1628 228.556 54.0056 229.567 53.3136C230.267 52.8354 231.124 52.6231 231.819 52.1391C233.273 51.1264 233.668 48.8872 232.647 47.4425C231.626 45.9979 229.375 45.6093 227.926 46.6263C225.724 48.1707 225.962 51.7389 223.892 53.4537C222.985 54.2035 221.784 54.4679 220.641 54.7554C219.499 55.0429 218.302 55.4156 217.529 56.2997C216.755 57.1838 216.671 57.7054 216.826 58.4551" fill="#96DFD8"/>
<path d="M46.1992 15.1504H49.3767V55.9748H71.031V58.6186H46.2007V15.1504H46.1992Z" fill="black"/>
<path d="M116.348 36.3044C116.348 51.3316 105.585 59.3928 94.1752 59.3928C81.7281 59.3928 72.457 50.1701 72.457 37.4644C72.457 23.7922 82.1812 14.376 94.6298 14.376C107.078 14.376 116.348 23.7922 116.348 36.3044ZM75.7638 37.3358C75.7638 47.59 82.8304 56.8127 94.3059 56.8127C105.781 56.8127 113.043 48.1057 113.043 36.5615C113.043 27.1453 106.884 16.9561 94.5005 16.9561C82.1173 16.9561 75.7638 26.6295 75.7638 37.3358Z" fill="black"/>
<path d="M164.909 38.1098C164.455 31.6609 163.872 23.2761 163.872 18.633H163.742C161.992 23.2761 159.983 28.3064 157.194 34.8853L147.081 58.6195H144.682L135.216 35.2089C132.493 28.4364 130.483 23.2775 129.057 18.6344H128.928C128.733 23.6647 128.409 31.5973 127.826 38.757L126.27 58.621H123.158L126.66 15.1528H130.29L140.793 41.0786C142.997 46.496 144.682 51.0105 145.979 54.9443H146.108C147.275 51.2677 149.025 46.8832 151.49 41.1421L162.511 15.1514H166.271L169.383 58.6195H166.271L164.91 38.1098H164.909Z" fill="black"/>
<path d="M219.951 36.3044C219.951 51.3316 209.189 59.3928 197.779 59.3928C185.332 59.3928 176.061 50.1701 176.061 37.4644C176.061 23.7922 185.785 14.376 198.233 14.376C210.682 14.376 219.951 23.7922 219.951 36.3044ZM179.366 37.3358C179.366 47.59 186.432 56.8127 197.908 56.8127C209.384 56.8127 216.645 48.1057 216.645 36.5615C216.645 27.1453 210.486 16.9561 198.103 16.9561C185.719 16.9561 179.366 26.6295 179.366 37.3358Z" fill="black"/>
<path d="M196.634 14.6578C198.501 15.1606 199.625 18.9224 202.213 19.9828C204.272 20.8265 206.757 19.3934 207.619 17.3507C208.482 15.3079 208.039 12.9286 207.107 10.9162C205.701 7.8824 203.199 5.36726 200.163 3.93705C198.777 3.28407 197.127 2.85934 195.727 3.48487C194.251 4.14508 193.49 5.75442 192.894 7.24964C192.423 8.42992 191.971 9.64343 191.906 10.9118C191.839 12.1802 192.212 13.5295 193.164 14.3761C194.115 15.2227 195.794 14.4296 196.634 14.6564" fill="#B2E1F1"/>
<path d="M47.6493 72.8643C45.8616 74.1139 42.173 73.9781 38.9301 72.2691C35.6873 70.5601 33.5409 66.9701 33.5786 63.3195C33.5975 61.5613 34.3265 59.5547 36.0126 59.0274C37.2179 58.6518 38.5031 59.1545 39.6635 59.6501C41.3495 60.3695 43.0341 61.0889 44.7202 61.8084C46.46 62.5509 48.2331 63.3137 49.6418 64.572C51.0505 65.8288 52.0569 67.6896 51.7969 69.5546C51.537 71.4196 48.7356 72.103 47.6479 72.8643" fill="#DEDAF4"/>
<path d="M107.542 18.889C104.048 16.8636 100.011 15.6587 95.978 15.3496C94.7146 15.2528 93.4148 15.2398 92.2356 14.7775C91.0564 14.3152 89.9992 13.2678 89.9789 12.0066C89.9498 10.2745 91.7578 9.11011 93.4134 8.57559C100.047 6.43461 107.949 9.13467 111.858 14.8801C112.496 15.8162 113.046 16.8636 113.106 17.9933C113.165 19.123 112.624 20.3452 111.584 20.8017C110.102 21.4518 108.8 19.9031 107.542 18.889Z" fill="#F6BEC7"/>
</svg>
