<svg width="54" height="97" viewBox="0 0 54 97" fill="none" xmlns="http://www.w3.org/2000/svg">
<g clip-path="url(#clip0_923_1967)">
<path d="M36.5798 0.278562C35.4492 1.52243 34.2774 2.82848 33.744 4.48856C33.3155 5.80897 33.4158 7.40686 34.1999 8.5694C36.2744 11.636 39.7667 8.689 42.0463 7.64607C45.142 6.23476 48.794 7.77524 50.6769 10.5739C52.7833 13.6979 52.9018 17.7931 52.0538 21.3956C51.2058 24.998 49.6146 28.1029 48.0736 31.2843C46.756 34.0016 45.3882 36.6999 43.9475 39.3503C42.5068 42.0006 40.9977 44.6271 39.3199 47.1196C38.057 48.995 36.6619 51.0282 34.8565 52.3773C33.8717 53.1141 32.8048 53.382 31.8064 52.4922C30.7486 51.5497 30.124 50.081 29.6271 48.7558C28.6605 46.1819 27.6438 43.632 26.6864 41.0534C25.6788 38.3265 24.7122 35.566 24.0329 32.7291C23.5633 30.758 22.998 28.3373 23.6454 26.3375C24.1378 24.8162 25.7335 24.1942 26.8687 25.419C28.2411 26.902 28.6331 29.3993 28.9341 31.3513C29.855 37.25 29.6954 43.4694 27.9629 49.1768C25.6013 56.9605 21.1287 63.797 18.6166 71.5185C16.5239 77.9531 15.9586 85.4115 19.346 91.4969C20.1029 92.8603 21.0557 94.0946 22.1773 95.1471C22.4509 95.4055 22.8521 94.9797 22.5785 94.7261C17.3354 89.7937 16.6652 81.6656 18.261 74.8769C20.1758 66.7296 24.7897 59.6922 27.6392 51.9181C28.9523 48.3444 29.8368 44.6367 29.9827 40.7951C30.083 38.1542 29.9963 35.4943 29.7046 32.8726C29.4492 30.5858 29.0936 28.1124 28.0085 26.0744C27.3019 24.7492 25.9022 23.5723 24.4159 24.4095C22.9296 25.2467 22.7427 27.3757 22.843 28.9688C23.0025 31.6239 23.773 34.2408 24.58 36.7477C25.5101 39.6421 26.5997 42.4743 27.6939 45.3017C28.1772 46.5503 28.6514 47.799 29.1255 49.0476C29.5997 50.2963 30.2289 51.7267 31.2045 52.7266C32.0662 53.6069 33.1878 53.9657 34.3139 53.4203C35.1072 53.0328 35.8002 52.4013 36.4248 51.765C38.2303 49.9183 39.6983 47.6889 41.0752 45.4835C44.3031 40.3119 47.0615 34.8149 49.6784 29.2797C51.3562 25.7299 52.9656 21.9792 53.1206 17.9606C53.2529 14.516 52.2681 10.794 49.6465 8.53591C48.4611 7.51211 47.025 6.80407 45.5022 6.584C43.9794 6.36393 42.5159 6.72274 41.1254 7.45949C39.7348 8.19624 38.0023 9.60754 36.2926 9.30136C34.5829 8.99518 33.8443 6.96194 34.1361 5.30664C34.4644 3.45998 35.8048 2.01519 36.9902 0.709131C37.2455 0.431653 36.8397 0.00586888 36.589 0.28813L36.5798 0.278562Z" fill="#231815"/>
<path d="M20.887 0.345801C21.3384 3.91474 19.4372 7.23011 17.0208 9.5791C14.3491 12.1769 11.03 13.8656 8.15315 16.1716C5.74589 18.0996 3.51188 20.6208 2.7049 23.7592C1.79306 27.3042 3.11523 30.8683 4.85229 33.8823C6.70333 37.0876 9.10147 40.0012 10.1501 43.6418C11.1987 47.2825 10.9434 51.2725 10.068 54.9658C8.29449 62.4529 3.9906 68.8971 1.72467 76.1928C-0.0990111 82.0677 -0.468307 89.2247 3.10611 94.4968C3.52556 95.1139 3.9906 95.688 4.49667 96.2238C4.75654 96.4965 5.15775 96.0755 4.89788 95.8028C0.448094 91.1048 0.261166 83.7278 1.8888 77.695C3.8675 70.3562 8.13947 63.979 10.2139 56.6737C11.1987 53.2052 11.723 49.5215 11.2124 45.9143C10.7017 42.3071 8.87807 39.1592 6.91761 36.1165C4.95715 33.0738 2.828 29.6627 2.97389 25.8211C3.10611 22.3144 5.32644 19.3865 7.79753 17.2289C10.5103 14.8655 13.7199 13.2198 16.4555 10.8804C18.8764 8.81365 21.001 5.99103 21.4478 2.6613C21.5527 1.89106 21.5527 1.11604 21.4569 0.345801C21.4113 -0.0321421 20.8369 -0.0369262 20.887 0.345801Z" fill="#231815"/>
<path d="M50.1351 26.7781C46.1595 35.1981 42.0698 43.8429 40.93 53.2772C40.3966 57.6785 40.5152 62.2043 41.5911 66.51C42.7173 71.0214 45.0607 74.8295 47.5318 78.6472C50.3038 82.9338 53.1989 87.6557 53.0028 93.0521C52.9891 93.4349 53.559 93.4349 53.5727 93.0521C53.9192 83.5701 45.7172 77.078 42.8449 68.7298C39.8404 59.994 41.2993 50.4211 44.2583 41.9102C46.0318 36.8103 48.3342 31.9401 50.6275 27.0795C50.7916 26.735 50.2992 26.4336 50.1351 26.7781Z" fill="#231815"/>
</g>
<defs>
<clipPath id="clip0_923_1967">
<rect width="53.2059" height="96.256" fill="white" transform="translate(0.375 0.0634766)"/>
</clipPath>
</defs>
</svg>
