<svg width="91" height="91" viewBox="0 0 91 91" fill="none" xmlns="http://www.w3.org/2000/svg">
<mask id="mask0_923_357" style="mask-type:alpha" maskUnits="userSpaceOnUse" x="0" y="0" width="91" height="91">
<circle cx="45.1389" cy="45.1389" r="44.6389" fill="#D9D9D9" stroke="black"/>
</mask>
<g mask="url(#mask0_923_357)">
<mask id="path-2-inside-1_923_357" fill="white">
<path d="M149.824 246.639C149.657 251.18 148.643 253.347 146.747 255.549C145.782 256.68 144.824 258.097 143.317 259.618C141.178 261.785 140.872 261.896 139.997 260.674C138.858 259.083 140.317 256.917 139.789 252.993C139.08 247.618 137.921 246.104 137.546 239.521C137.49 238.528 136.928 243.924 135.039 245.896C133.539 247.465 131.011 247.354 131.421 246.569C135.24 239.153 131.886 234.403 133.546 228.729C134.08 226.896 135.56 223.979 135.49 222.604C135.49 222.528 135.476 222.444 135.462 222.361C135.455 222.319 135.455 222.278 135.449 222.236C135.171 219.097 133.421 215.201 130.983 210.333C127.65 203.68 125.733 199.583 121.039 187.757L120.99 187.632C120.685 186.868 120.365 186.055 120.032 185.222C114.129 170.229 113.15 156.972 112.914 155.389C112.817 154.694 112.671 153.937 112.511 153.153C112.504 153.111 112.497 153.069 112.483 153.028C110.942 145.597 106.949 134.062 104.365 124.292C103.955 122.75 102.955 118.194 102.546 116.292C99.5319 127.042 92.9694 147.514 94.9763 153.153H94.9833C95.886 157.805 98.1777 162.771 101.011 169.042C103.539 174.632 105.087 178.986 106.004 181.93C106.928 184.882 107.212 186.437 107.212 186.437C107.33 186.819 107.462 187.222 107.587 187.618C107.601 187.66 107.615 187.701 107.629 187.743C110.094 195.319 113.851 205.333 114.018 222.104C114.018 222.187 114.025 222.264 114.025 222.347C114.053 225.917 113.914 229.771 113.574 233.979C112.712 244.41 106.365 266.694 103.997 277.34C98.7194 301 95.7472 315.187 95.3583 323.521C94.8583 334.299 96.018 337.66 97.0527 344.187C99.0458 356.861 97.5874 367.819 95.2124 377.868C90.8235 396.437 86.2124 404.694 85.7402 414.437C85.6291 416.868 87.0666 417.889 86.2749 420.965C85.8652 422.576 85.1638 424.104 86.2263 427.674C89.8097 439.743 94.4694 442.896 93.9208 447.306C93.3096 452.187 80.3791 451.889 75.3097 450.792C71.143 449.882 71.1985 442.41 72.3999 433.84C72.643 432.104 72.768 430.174 72.6777 427.208C72.6291 425.743 72.3166 424.035 72.1499 421.972C71.9971 420.069 72.4346 418.062 72.6777 416.472C72.8513 415.271 73.0388 414.305 73.0666 413.799C74.1846 395.146 73.8444 390.674 71.9833 373.139C70.1152 355.417 72.7402 352.236 72.4069 341.403C72.2124 334.979 70.6846 328.417 70.268 321.458C69.7541 312.743 70.4694 304.5 71.1916 298.299C73.1985 281.16 73.1846 278.389 73.8305 264.84C74.5388 250.125 70.8235 242.91 72.9416 230.215C72.4485 230.437 71.2472 230.542 70.0597 230.535C68.8583 230.542 67.6569 230.444 67.1708 230.215C69.2888 242.91 65.5735 250.125 66.2819 264.84C66.9347 278.389 66.9138 281.16 68.9208 298.299C69.6569 304.5 70.3652 312.743 69.8444 321.458C69.4346 328.417 67.893 334.972 67.7055 341.403C67.3721 352.236 69.9972 355.41 68.1291 373.139C66.2819 390.674 65.9277 395.146 67.0457 413.799C67.0805 414.305 67.261 415.271 67.4485 416.472C67.6846 418.062 68.1221 420.069 67.9624 421.972C67.8027 424.028 67.4902 425.736 67.4485 427.208C67.3513 430.174 67.4763 432.111 67.7124 433.84C68.9208 442.41 68.9694 449.882 64.8027 450.792C59.7471 451.889 46.8027 452.194 46.1916 447.306C45.643 442.896 50.3027 439.736 53.886 427.674C54.9555 424.104 54.2541 422.576 53.8374 420.965C53.0458 417.889 54.4902 416.875 54.3721 414.437C53.9069 404.694 49.2958 396.437 44.8999 377.868C42.5249 367.819 41.0666 356.861 43.0666 344.187C44.0944 337.66 45.2471 334.299 44.7471 323.521C44.3583 315.187 41.3791 300.993 36.1152 277.34C33.7402 266.701 27.3999 244.417 26.5388 233.979C26.1916 229.771 26.0527 225.91 26.0805 222.347C26.0805 222.264 26.0874 222.187 26.0874 222.104C26.2541 205.34 30.018 195.319 32.4763 187.743H32.4833C32.4971 187.701 32.511 187.66 32.5249 187.618C32.6499 187.215 32.7819 186.819 32.8999 186.437C32.8999 186.437 34.0527 180.215 39.1013 169.035C41.9346 162.757 44.2194 157.792 45.1291 153.146C47.136 147.514 40.5874 127.035 37.5735 116.285C37.1638 118.187 36.1638 122.743 35.7541 124.285C33.1707 134.049 29.1777 145.583 27.636 153.021C27.6291 153.062 27.6221 153.104 27.6083 153.146C27.4485 153.93 27.3096 154.687 27.2055 155.382C26.9694 156.965 25.9902 170.222 20.0874 185.215C19.7541 186.049 19.4346 186.854 19.1291 187.625C19.1152 187.667 19.0944 187.708 19.0805 187.75C14.386 199.576 12.4694 203.674 9.13603 210.326C6.69159 215.194 4.94159 219.083 4.67076 222.229C4.66381 222.271 4.6638 222.312 4.65686 222.354C4.64991 222.437 4.62909 222.521 4.62909 222.597C4.55271 223.972 6.03881 226.889 6.57353 228.722C8.23325 234.396 4.87908 239.146 8.69853 246.562C9.10825 247.347 6.58048 247.451 5.08048 245.889C3.19159 243.917 2.62908 238.521 2.57352 239.514C2.19852 246.097 1.03881 247.611 0.330481 252.986C-0.197297 256.91 1.26102 259.076 0.122134 260.667C-0.752866 261.882 -1.05148 261.778 -3.19731 259.611C-4.70425 258.097 -5.66259 256.68 -6.62787 255.542C-8.51676 253.34 -9.53758 251.174 -9.70425 246.632C-9.82925 243.208 -9.32231 240.597 -8.03759 235.618C-7.46814 233.424 -6.84315 232.201 -6.0237 226.035C-5.78759 224.236 -5.77369 223.153 -5.77369 222.354V222.229C-5.77369 221.771 -5.77369 221.403 -5.72508 221.049C-5.41952 218.5 -4.10007 217.701 -3.37785 212.917C-2.0098 203.882 -1.10008 197.16 0.177702 187.757C0.177702 187.715 0.184638 187.674 0.191583 187.632C0.448527 185.715 0.726313 183.708 1.02492 181.521C2.08048 173.729 5.62215 163.93 9.35826 153.153C9.3652 153.111 9.38603 153.069 9.39992 153.028C9.6152 152.41 9.82352 151.792 10.0388 151.167C10.4207 150.055 11.2333 141.597 11.5458 137.153C11.9277 131.604 15.5735 80.6944 18.0735 73.0138C19.9346 67.2916 21.7402 64.986 23.4624 64.2291V64.2152C23.4624 64.2152 24.8721 63.4791 25.7194 63.1388C28.0874 62.1943 31.011 61.6735 34.1222 61.1318C37.1708 60.5763 42.5805 59.9582 45.5805 58.7985C50.0249 57.0902 53.6916 54.9582 55.886 49.6249C56.8166 47.3749 57.1916 41.118 57.3444 36.8402C55.2263 34.8818 53.5944 32.3541 52.5596 28.1666C52.3791 27.4166 52.1569 26.5277 51.9485 25.5693C49.6291 26.3888 49.0249 22.8193 48.6013 21.7846C48.1291 20.6527 47.4902 20.5416 46.8652 18.0346C46.4416 16.368 47.1708 15.2707 46.8721 14.1943C46.6708 13.4721 46.5805 11.4305 47.4971 10.7291C47.5944 10.6527 47.7194 10.611 47.8583 10.5763C46.4833 5.35406 45.6082 -3.18066 48.4694 -9.71538C49.7124 -12.5418 51.2333 -14.8126 52.8444 -16.6251C56.6499 -21.264 62.9277 -24.3057 70.0388 -24.3057C77.1499 -24.3057 83.4208 -21.264 87.2333 -16.6251C88.8444 -14.8196 90.3652 -12.5418 91.6083 -9.71538C94.4694 -3.18066 93.5944 5.35406 92.2194 10.5763C92.3513 10.611 92.4763 10.6527 92.5805 10.7291C93.4971 11.4305 93.4069 13.4721 93.2055 14.1943C92.9069 15.2707 93.636 16.368 93.2124 18.0346C92.5874 20.5416 91.9555 20.6527 91.4763 21.7846C91.0527 22.8193 90.4416 26.3818 88.1291 25.5693C87.9208 26.5277 87.7055 27.4166 87.518 28.1666C86.4833 32.361 84.8513 34.8818 82.7333 36.8402C82.886 41.118 83.261 47.3749 84.1916 49.6249C86.393 54.9582 90.0596 57.0902 94.4971 58.7985C97.4971 59.9582 102.907 60.5763 105.955 61.1318C109.067 61.6735 111.99 62.2013 114.358 63.1388C115.205 63.4791 116.615 64.2152 116.615 64.2152V64.2291C118.337 64.986 120.15 67.2846 122.004 73.0138C124.504 80.6944 128.143 131.604 128.532 137.153C128.851 141.604 129.657 150.062 130.039 151.167C130.254 151.792 130.462 152.41 130.678 153.028C130.692 153.069 130.712 153.111 130.719 153.153C134.455 163.93 137.997 173.729 139.053 181.521C139.351 183.701 139.629 185.715 139.886 187.632C139.893 187.674 139.9 187.715 139.9 187.757C141.185 197.16 142.094 203.882 143.455 212.917C144.178 217.701 145.497 218.5 145.803 221.049C145.851 221.41 145.851 221.771 145.851 222.229V222.354C145.851 223.153 145.865 224.236 146.101 226.035C146.928 232.201 147.553 233.424 148.115 235.618C149.4 240.604 149.907 243.208 149.782 246.632L149.824 246.639Z"/>
</mask>
<path d="M149.824 246.639C149.657 251.18 148.643 253.347 146.747 255.549C145.782 256.68 144.824 258.097 143.317 259.618C141.178 261.785 140.872 261.896 139.997 260.674C138.858 259.083 140.317 256.917 139.789 252.993C139.08 247.618 137.921 246.104 137.546 239.521C137.49 238.528 136.928 243.924 135.039 245.896C133.539 247.465 131.011 247.354 131.421 246.569C135.24 239.153 131.886 234.403 133.546 228.729C134.08 226.896 135.56 223.979 135.49 222.604C135.49 222.528 135.476 222.444 135.462 222.361C135.455 222.319 135.455 222.278 135.449 222.236C135.171 219.097 133.421 215.201 130.983 210.333C127.65 203.68 125.733 199.583 121.039 187.757L120.99 187.632C120.685 186.868 120.365 186.055 120.032 185.222C114.129 170.229 113.15 156.972 112.914 155.389C112.817 154.694 112.671 153.937 112.511 153.153C112.504 153.111 112.497 153.069 112.483 153.028C110.942 145.597 106.949 134.062 104.365 124.292C103.955 122.75 102.955 118.194 102.546 116.292C99.5319 127.042 92.9694 147.514 94.9763 153.153H94.9833C95.886 157.805 98.1777 162.771 101.011 169.042C103.539 174.632 105.087 178.986 106.004 181.93C106.928 184.882 107.212 186.437 107.212 186.437C107.33 186.819 107.462 187.222 107.587 187.618C107.601 187.66 107.615 187.701 107.629 187.743C110.094 195.319 113.851 205.333 114.018 222.104C114.018 222.187 114.025 222.264 114.025 222.347C114.053 225.917 113.914 229.771 113.574 233.979C112.712 244.41 106.365 266.694 103.997 277.34C98.7194 301 95.7472 315.187 95.3583 323.521C94.8583 334.299 96.018 337.66 97.0527 344.187C99.0458 356.861 97.5874 367.819 95.2124 377.868C90.8235 396.437 86.2124 404.694 85.7402 414.437C85.6291 416.868 87.0666 417.889 86.2749 420.965C85.8652 422.576 85.1638 424.104 86.2263 427.674C89.8097 439.743 94.4694 442.896 93.9208 447.306C93.3096 452.187 80.3791 451.889 75.3097 450.792C71.143 449.882 71.1985 442.41 72.3999 433.84C72.643 432.104 72.768 430.174 72.6777 427.208C72.6291 425.743 72.3166 424.035 72.1499 421.972C71.9971 420.069 72.4346 418.062 72.6777 416.472C72.8513 415.271 73.0388 414.305 73.0666 413.799C74.1846 395.146 73.8444 390.674 71.9833 373.139C70.1152 355.417 72.7402 352.236 72.4069 341.403C72.2124 334.979 70.6846 328.417 70.268 321.458C69.7541 312.743 70.4694 304.5 71.1916 298.299C73.1985 281.16 73.1846 278.389 73.8305 264.84C74.5388 250.125 70.8235 242.91 72.9416 230.215C72.4485 230.437 71.2472 230.542 70.0597 230.535C68.8583 230.542 67.6569 230.444 67.1708 230.215C69.2888 242.91 65.5735 250.125 66.2819 264.84C66.9347 278.389 66.9138 281.16 68.9208 298.299C69.6569 304.5 70.3652 312.743 69.8444 321.458C69.4346 328.417 67.893 334.972 67.7055 341.403C67.3721 352.236 69.9972 355.41 68.1291 373.139C66.2819 390.674 65.9277 395.146 67.0457 413.799C67.0805 414.305 67.261 415.271 67.4485 416.472C67.6846 418.062 68.1221 420.069 67.9624 421.972C67.8027 424.028 67.4902 425.736 67.4485 427.208C67.3513 430.174 67.4763 432.111 67.7124 433.84C68.9208 442.41 68.9694 449.882 64.8027 450.792C59.7471 451.889 46.8027 452.194 46.1916 447.306C45.643 442.896 50.3027 439.736 53.886 427.674C54.9555 424.104 54.2541 422.576 53.8374 420.965C53.0458 417.889 54.4902 416.875 54.3721 414.437C53.9069 404.694 49.2958 396.437 44.8999 377.868C42.5249 367.819 41.0666 356.861 43.0666 344.187C44.0944 337.66 45.2471 334.299 44.7471 323.521C44.3583 315.187 41.3791 300.993 36.1152 277.34C33.7402 266.701 27.3999 244.417 26.5388 233.979C26.1916 229.771 26.0527 225.91 26.0805 222.347C26.0805 222.264 26.0874 222.187 26.0874 222.104C26.2541 205.34 30.018 195.319 32.4763 187.743H32.4833C32.4971 187.701 32.511 187.66 32.5249 187.618C32.6499 187.215 32.7819 186.819 32.8999 186.437C32.8999 186.437 34.0527 180.215 39.1013 169.035C41.9346 162.757 44.2194 157.792 45.1291 153.146C47.136 147.514 40.5874 127.035 37.5735 116.285C37.1638 118.187 36.1638 122.743 35.7541 124.285C33.1707 134.049 29.1777 145.583 27.636 153.021C27.6291 153.062 27.6221 153.104 27.6083 153.146C27.4485 153.93 27.3096 154.687 27.2055 155.382C26.9694 156.965 25.9902 170.222 20.0874 185.215C19.7541 186.049 19.4346 186.854 19.1291 187.625C19.1152 187.667 19.0944 187.708 19.0805 187.75C14.386 199.576 12.4694 203.674 9.13603 210.326C6.69159 215.194 4.94159 219.083 4.67076 222.229C4.66381 222.271 4.6638 222.312 4.65686 222.354C4.64991 222.437 4.62909 222.521 4.62909 222.597C4.55271 223.972 6.03881 226.889 6.57353 228.722C8.23325 234.396 4.87908 239.146 8.69853 246.562C9.10825 247.347 6.58048 247.451 5.08048 245.889C3.19159 243.917 2.62908 238.521 2.57352 239.514C2.19852 246.097 1.03881 247.611 0.330481 252.986C-0.197297 256.91 1.26102 259.076 0.122134 260.667C-0.752866 261.882 -1.05148 261.778 -3.19731 259.611C-4.70425 258.097 -5.66259 256.68 -6.62787 255.542C-8.51676 253.34 -9.53758 251.174 -9.70425 246.632C-9.82925 243.208 -9.32231 240.597 -8.03759 235.618C-7.46814 233.424 -6.84315 232.201 -6.0237 226.035C-5.78759 224.236 -5.77369 223.153 -5.77369 222.354V222.229C-5.77369 221.771 -5.77369 221.403 -5.72508 221.049C-5.41952 218.5 -4.10007 217.701 -3.37785 212.917C-2.0098 203.882 -1.10008 197.16 0.177702 187.757C0.177702 187.715 0.184638 187.674 0.191583 187.632C0.448527 185.715 0.726313 183.708 1.02492 181.521C2.08048 173.729 5.62215 163.93 9.35826 153.153C9.3652 153.111 9.38603 153.069 9.39992 153.028C9.6152 152.41 9.82352 151.792 10.0388 151.167C10.4207 150.055 11.2333 141.597 11.5458 137.153C11.9277 131.604 15.5735 80.6944 18.0735 73.0138C19.9346 67.2916 21.7402 64.986 23.4624 64.2291V64.2152C23.4624 64.2152 24.8721 63.4791 25.7194 63.1388C28.0874 62.1943 31.011 61.6735 34.1222 61.1318C37.1708 60.5763 42.5805 59.9582 45.5805 58.7985C50.0249 57.0902 53.6916 54.9582 55.886 49.6249C56.8166 47.3749 57.1916 41.118 57.3444 36.8402C55.2263 34.8818 53.5944 32.3541 52.5596 28.1666C52.3791 27.4166 52.1569 26.5277 51.9485 25.5693C49.6291 26.3888 49.0249 22.8193 48.6013 21.7846C48.1291 20.6527 47.4902 20.5416 46.8652 18.0346C46.4416 16.368 47.1708 15.2707 46.8721 14.1943C46.6708 13.4721 46.5805 11.4305 47.4971 10.7291C47.5944 10.6527 47.7194 10.611 47.8583 10.5763C46.4833 5.35406 45.6082 -3.18066 48.4694 -9.71538C49.7124 -12.5418 51.2333 -14.8126 52.8444 -16.6251C56.6499 -21.264 62.9277 -24.3057 70.0388 -24.3057C77.1499 -24.3057 83.4208 -21.264 87.2333 -16.6251C88.8444 -14.8196 90.3652 -12.5418 91.6083 -9.71538C94.4694 -3.18066 93.5944 5.35406 92.2194 10.5763C92.3513 10.611 92.4763 10.6527 92.5805 10.7291C93.4971 11.4305 93.4069 13.4721 93.2055 14.1943C92.9069 15.2707 93.636 16.368 93.2124 18.0346C92.5874 20.5416 91.9555 20.6527 91.4763 21.7846C91.0527 22.8193 90.4416 26.3818 88.1291 25.5693C87.9208 26.5277 87.7055 27.4166 87.518 28.1666C86.4833 32.361 84.8513 34.8818 82.7333 36.8402C82.886 41.118 83.261 47.3749 84.1916 49.6249C86.393 54.9582 90.0596 57.0902 94.4971 58.7985C97.4971 59.9582 102.907 60.5763 105.955 61.1318C109.067 61.6735 111.99 62.2013 114.358 63.1388C115.205 63.4791 116.615 64.2152 116.615 64.2152V64.2291C118.337 64.986 120.15 67.2846 122.004 73.0138C124.504 80.6944 128.143 131.604 128.532 137.153C128.851 141.604 129.657 150.062 130.039 151.167C130.254 151.792 130.462 152.41 130.678 153.028C130.692 153.069 130.712 153.111 130.719 153.153C134.455 163.93 137.997 173.729 139.053 181.521C139.351 183.701 139.629 185.715 139.886 187.632C139.893 187.674 139.9 187.715 139.9 187.757C141.185 197.16 142.094 203.882 143.455 212.917C144.178 217.701 145.497 218.5 145.803 221.049C145.851 221.41 145.851 221.771 145.851 222.229V222.354C145.851 223.153 145.865 224.236 146.101 226.035C146.928 232.201 147.553 233.424 148.115 235.618C149.4 240.604 149.907 243.208 149.782 246.632L149.824 246.639Z" stroke="black" stroke-width="2" mask="url(#path-2-inside-1_923_357)"/>
</g>
</svg>
