<svg width="51" height="95" viewBox="0 0 51 95" fill="none" xmlns="http://www.w3.org/2000/svg">
<g clip-path="url(#clip0_923_1975)">
<path d="M20.3001 0.52125C20.4888 4.16042 19.1218 7.79482 16.6317 10.3704C15.2877 11.7583 13.6676 12.6741 11.9416 13.4563C10.2156 14.2385 8.37451 14.9492 6.86943 16.1988C5.6175 17.2385 4.51746 18.6694 4.2413 20.3435C3.96514 22.0176 4.53587 23.5439 5.47022 24.8555C6.469 26.2578 7.75315 27.3929 8.8716 28.6855C9.99005 29.978 10.9888 31.4804 11.7851 33.0544C14.9149 39.25 15.2555 47.0196 12.342 53.3727C10.7173 56.9165 8.19961 59.8974 5.9489 63.0167C3.83166 65.95 1.99519 69.0693 1.17591 72.6703C-0.310754 79.195 1.19893 86.4018 5.23088 91.6531C5.75098 92.3304 6.31251 92.9695 6.91086 93.5705C7.17781 93.8376 7.58285 93.4179 7.31589 93.1508C2.5199 88.3192 0.356635 80.9932 1.46128 74.1822C2.05042 70.5383 3.64755 67.3379 5.70495 64.357C7.89123 61.19 10.4365 58.271 12.2546 54.8417C15.4166 48.8702 15.702 41.5251 13.3454 35.2007C12.1579 32.0194 10.3307 29.3246 8.02471 26.9112C6.8188 25.652 5.47022 24.3166 4.95011 22.5757C4.38398 20.7012 5.10661 18.8554 6.36774 17.477C8.99127 14.6201 13.0923 14.1526 16.0242 11.7345C18.5971 9.60725 20.3231 6.41165 20.7787 3.0348C20.8938 2.20013 20.926 1.35592 20.88 0.51648C20.8616 0.134916 20.2863 0.130146 20.3047 0.51648L20.3001 0.52125Z" fill="#231815"/>
<path d="M33.4684 0.154286C32.327 1.39437 31.1441 2.69646 30.6056 4.35149C30.1729 5.66789 30.2742 7.26092 31.0658 8.41992C33.1601 11.4772 36.6857 8.53916 38.9871 7.4994C42.1123 6.09238 45.799 7.62818 47.6999 10.4184C49.8264 13.5329 49.946 17.6156 49.0899 21.2071C48.2615 24.6841 46.6275 27.894 45.0718 31.0658C43.7416 33.7749 42.3608 36.4649 40.9064 39.1072C39.4519 41.7496 37.9284 44.3681 36.2347 46.853C34.9597 48.7227 33.5513 50.7497 31.7286 52.0947C30.7344 52.8292 29.6574 53.0963 28.6494 52.2092C27.5816 51.2696 26.951 49.8053 26.4493 48.4842C25.4736 45.9182 24.4472 43.376 23.4806 40.8052C22.4634 38.0866 21.4877 35.3345 20.8019 32.5062C20.3278 30.5411 19.757 28.1277 20.4106 26.134C20.9077 24.6173 22.5187 23.9973 23.6647 25.2183C25.0501 26.6969 25.446 29.1866 25.7497 31.1325C26.6795 37.0134 26.5184 43.2138 24.7694 48.9039C22.3852 56.664 17.8699 63.4797 15.3339 71.1777C13.2212 77.5928 12.6505 85.0285 16.0703 91.0954C16.8343 92.4547 17.7963 93.6852 18.9286 94.7345C19.2047 94.9921 19.6098 94.5676 19.3336 94.3148C14.0405 89.3974 13.3639 81.2939 14.9749 74.5259C16.908 66.4034 21.5659 59.3874 24.4426 51.6369C25.7682 48.074 26.6611 44.3776 26.8084 40.5476C26.9096 37.9148 26.8222 35.263 26.5276 32.6493C26.2698 30.3694 25.9108 27.9036 24.8154 25.8717C24.102 24.5506 22.689 23.3772 21.1885 24.2119C19.688 25.0466 19.4993 27.169 19.6006 28.7573C19.7616 31.4044 20.5395 34.0134 21.3542 36.5126C22.2931 39.3982 23.3932 42.2218 24.4978 45.0406C24.9857 46.2854 25.4644 47.5303 25.9431 48.7751C26.4217 50.02 27.0569 51.4461 28.0419 52.4429C28.9118 53.3205 30.044 53.6782 31.1809 53.1345C31.9818 52.7482 32.6814 52.1186 33.3119 51.4842C35.1346 49.6432 36.6167 47.4206 38.0067 45.2218C41.2654 40.0659 44.05 34.5857 46.6919 29.0673C48.3857 25.5283 50.0105 21.789 50.167 17.7826C50.3005 14.3485 49.3063 10.6378 46.6597 8.38654C45.463 7.36585 44.0132 6.65996 42.4759 6.44056C40.9386 6.22116 39.4611 6.57888 38.0573 7.31339C36.6535 8.0479 34.9045 9.45492 33.1785 9.14966C31.4525 8.84441 30.7068 6.81735 31.0014 5.16709C31.3328 3.32604 32.686 1.88563 33.8827 0.583546C34.1404 0.306912 33.7308 -0.117579 33.4776 0.163825L33.4684 0.154286Z" fill="#231815"/>
<path d="M47.0739 26.9729C44.9889 31.3895 42.6691 35.6821 40.6255 40.1178C38.7154 44.2626 36.9526 48.6315 36.7363 53.277C36.5199 57.9226 37.9652 62.1341 40.0134 66.1024C42.0616 70.0706 44.6667 73.767 46.5262 77.8641C48.625 82.4953 49.9138 87.9183 47.976 92.8405C47.8379 93.1934 48.3903 93.3508 48.5329 92.9979C51.9527 84.3173 46.1211 75.6844 42.0202 68.5396C39.751 64.5856 37.6798 60.3646 37.3438 55.6952C36.9986 50.8875 38.5359 46.2849 40.4276 41.9684C42.6185 36.9699 45.2466 32.2004 47.5756 27.2734C47.7367 26.93 47.2396 26.6295 47.0785 26.9729H47.0739Z" fill="#231815"/>
</g>
<defs>
<clipPath id="clip0_923_1975">
<rect width="49.5617" height="94.752" fill="white" transform="translate(0.605469 0.0634766)"/>
</clipPath>
</defs>
</svg>
